<?xml version="1.0" encoding="UTF-8" standalone="no"?>
<svg
   id="svg2"
   viewBox="0 0 1500 849.99999"
   version="1.1"
   preserveAspectRatio="xMinYMin"
   sodipodi:docname="laurels-thinky-awards-2024.svg"
   inkscape:export-filename="C:\Users\alan\Downloads\igf-laurel-2.png"
   inkscape:export-xdpi="39.040001"
   inkscape:export-ydpi="39.040001"
   inkscape:version="1.2 (dc2aedaf03, 2022-05-15)"
   width="1500"
   height="850"
   xmlns:inkscape="http://www.inkscape.org/namespaces/inkscape"
   xmlns:sodipodi="http://sodipodi.sourceforge.net/DTD/sodipodi-0.dtd"
   xmlns="http://www.w3.org/2000/svg"
   xmlns:svg="http://www.w3.org/2000/svg"
   xmlns:rdf="http://www.w3.org/1999/02/22-rdf-syntax-ns#"
   xmlns:cc="http://creativecommons.org/ns#"
   xmlns:dc="http://purl.org/dc/elements/1.1/">
  <defs
     id="defs55" />
  <sodipodi:namedview
     pagecolor="#ffffff"
     bordercolor="#666666"
     borderopacity="1"
     objecttolerance="10"
     gridtolerance="10"
     guidetolerance="10"
     inkscape:pageopacity="0"
     inkscape:pageshadow="2"
     inkscape:window-width="2560"
     inkscape:window-height="1351"
     id="namedview53"
     showgrid="false"
     inkscape:zoom="0.37574333"
     inkscape:cx="683.97754"
     inkscape:cy="554.90007"
     inkscape:window-x="-9"
     inkscape:window-y="-9"
     inkscape:window-maximized="1"
     inkscape:current-layer="svg2"
     inkscape:document-rotation="0"
     inkscape:showpageshadow="2"
     inkscape:pagecheckerboard="true"
     inkscape:deskcolor="#111922" />
  <g
     id="g5249"
     style="fill:#000000;fill-opacity:1"
     transform="translate(12.2975,24.155)">
    <path
       d="m 334.46,49.002 c -18.278,12.277 -38.479,27.48 -54.76,44.437 -28.887,30.086 -57.536,64.004 -82.159,97.941 -16.634,22.926 -38.215,57.715 -50.006,83.305 -15.691,34.056 -24.985,57.915 -33.597,95.332 -12.132,52.713 -10.459,106.81 1.863,157.81 18.129,75.031 76.15,137.81 134.13,188.77 45.358,39.863 106.34,65.942 159.92,85.098 l 5.5363,-14.63 c -53.09,-18.97 -109.36,-44.31 -152.83,-82.56 -55.92,-49.21 -107.57,-109.22 -129.85,-180.73 -13.57,-43.53 -16.72,-91.29 -9.6,-137.54 6.2375,-40.516 21.918,-81.121 37.193,-118.04 12.558,-30.349 27.2,-53.991 45.06,-78.892 22.645,-31.574 47.529,-62.365 73.981,-90.48 17.123,-18.199 40.023,-34.629 58.415,-46.982 z"
       style="color:#000000;text-indent:0;text-transform:none;fill:#000000;fill-opacity:1"
       id="path3035" />
    <path
       d="m 311.24,756.98 c 0,0 -37.634,-11.898 -67.5,-8.3929 -47.415,5.5642 -51.786,35 -51.786,35 0,0 19.022,11.809 59.821,7.3214 47.796,-5.2574 59.464,-33.929 59.464,-33.929 z"
       style="fill:#000000;fill-opacity:1"
       id="path3809" />
    <path
       d="m 247.15,713.02 c 0,0 -31.716,-15.044 -61.786,-14.821 -52.058,0.38562 -55.179,28.036 -55.179,28.036 0,0 18.843,13.595 60.536,13.036 48.08,-0.64498 56.429,-26.25 56.429,-26.25 z"
       style="fill:#000000;fill-opacity:1"
       id="path3811" />
    <path
       d="m 199.74,666.79 c 0,0 -30.157,-26.43 -59.326,-33.739 -50.498,-12.653 -67.224,16.73 -67.224,16.73 0,0 18.771,22.52 59.277,32.411 46.711,11.406 67.273,-15.402 67.273,-15.402 z"
       style="fill:#000000;fill-opacity:1"
       id="path3813" />
    <path
       d="m 146.2,595.58 c 0,0 -25.79,-27.185 -61.094,-38.032 -46.073,-14.156 -67.729,13.636 -68.361,14.331 0,0 18.879,23.762 58.267,34.179 52.832,13.973 71.188,-10.478 71.188,-10.478 z"
       style="fill:#000000;fill-opacity:1"
       id="path3815" />
    <path
       d="m 120.7,538.91 c 0,0 -24.019,-36.576 -59.844,-53.84 C 26.055,468.29 0.631,482.58 0,483.14 c 0,0 17.877,32.67 50.767,48.325 44.687,21.271 69.938,7.4411 69.938,7.4412 z"
       style="fill:#000000;fill-opacity:1"
       id="path3817" />
    <path
       d="M 112.96,489.18 C 100.14,477.12 99.185,444.34 80.861,417.74 55.298,380.63 13.131,383.32 12.5,383.67 c 0,0 4.5142,46.234 36.481,74.178 33.973,29.697 63.978,31.335 63.978,31.335 z"
       style="fill:#000000;fill-opacity:1"
       id="path3819" />
    <path
       d="m 109.42,411.25 c 0,0 1.2445,-40.185 -9.3525,-70.701 -14.783,-42.569 -55.138,-50.926 -55.839,-50.759 0,0 -6.5444,45.519 16.848,80.952 24.861,37.657 48.344,40.507 48.344,40.507 z"
       style="fill:#000000;fill-opacity:1"
       id="path3821" />
    <path
       d="m 126.51,335.94 c 0,0 8.0495,-33.735 3.9716,-65.78 -6.1462,-48.297 -43.73,-58.521 -44.448,-58.451 0,0 -12.884,44.733 5.4449,83.031 19.479,40.702 35.031,41.2 35.031,41.2 z"
       style="fill:#000000;fill-opacity:1"
       id="path3823" />
    <path
       d="m 159.62,255.08 c 0,0 13.089,-30.516 11.412,-62.775 -2.3279,-44.771 -32.665,-63.685 -33.385,-63.711 0,0 -29.251,26.374 -12.451,83.145 10.191,34.437 34.425,43.342 34.425,43.342 z"
       style="fill:#000000;fill-opacity:1"
       id="path3830" />
    <path
       d="m 201.74,188.6 c 0,0 19.451,-29.962 24.832,-61.814 5.0517,-29.903 -7.0803,-62.481 -9.7885,-65.475 0,0 -31.65,13.91 -30.465,67.294 0.79711,35.905 15.422,59.995 15.422,59.995 z"
       style="fill:#000000;fill-opacity:1"
       id="path3832" />
    <path
       d="m 253.49,124.45 c 0,0 23.192,-24.697 29.233,-58.466 5,-27.984 -0.04,-58.394 -5.31,-65.984 0,0 -30.25,18.795 -32.448,66.327 -1.6587,35.875 6.1262,52.95 8.5253,58.127 z"
       style="fill:#000000;fill-opacity:1"
       id="path3834" />
    <path
       d="m 291.03,85.107 c 0,0 44.199,1.5969 66.166,-11.157 24.589,-14.276 48.719,-45.263 50.623,-54.309 0,0 -38.712,-16.975 -74.806,14.032 -27.242,23.402 -39.862,46.137 -41.983,51.434 z"
       style="fill:#000000;fill-opacity:1"
       id="path3836" />
    <path
       d="m 242.33,138.43 c 0,0 21.141,-24.752 57.469,-31.147 28.002,-4.9287 49.529,-0.37797 63.35,7.6753 0,0 -21.322,27.318 -62.19,31.084 -35.762,3.2949 -53.376,-5.3854 -58.63,-7.6124 z"
       style="fill:#000000;fill-opacity:1"
       id="path3838" />
    <path
       d="m 198.64,195.5 c 0,0 20.13,-23.742 56.459,-30.136 28.002,-4.9287 41.448,0.12711 55.269,8.1804 0,0 -17.029,26.056 -57.897,29.821 -35.762,3.2949 -48.578,-5.638 -53.832,-7.8649 z"
       style="fill:#000000;fill-opacity:1"
       id="path3840" />
    <path
       d="m 156.23,269.95 c 0,0 18.805,-29.262 52.808,-43.562 34.843,-14.654 52.739,-7.6569 67.725,-2.0626 -4.7791,7.1686 -24.337,37.05 -56.046,46.02 -34.557,9.7763 -58.932,0.90881 -64.487,-0.39556 z"
       style="fill:#000000;fill-opacity:1"
       id="path3842" />
    <path
       d="m 131.06,336.07 c 0,0 16.664,-30.532 49.556,-47.228 33.706,-17.109 52.056,-11.41 67.404,-6.9021 -4.254,7.4921 -21.624,38.696 -52.61,49.912 -33.77,12.223 -58.716,5.1223 -64.35,4.2186 z"
       style="fill:#000000;fill-opacity:1"
       id="path3844" />
    <path
       d="m 117.84,414.65 c 14.421,-18.489 22.261,-38.366 44.449,-58.149 27.336,-24.373 50.792,-16.603 66.711,-15.029 -7.8365,14.719 -19.603,38.003 -43.92,55.546 -29.126,21.011 -61.536,17.473 -67.24,17.633 z"
       style="fill:#000000;fill-opacity:1"
       id="path3846" />
    <path
       d="m 119.63,487.05 c 12.262,-19.986 18.081,-35.565 37.916,-57.707 24.437,-27.278 47.605,-22.435 63.6,-22.652 -6.1404,15.503 -16.49,38.695 -38.692,58.849 -26.592,24.138 -57.175,20.713 -62.824,21.51 z"
       style="fill:#000000;fill-opacity:1"
       id="path3848" />
    <path
       d="m 135.4,544.78 c 18.448,-28.481 16.12,-34.927 34.176,-58.542 19.392,-25.362 43.885,-24.665 59.811,-26.165 -4.8772,15.946 -12.165,37.517 -32.837,59.237 -22.045,23.163 -44.975,20.181 -61.149,25.47 z"
       style="fill:#000000;fill-opacity:1"
       id="path3850" />
    <path
       d="m 165.71,601.35 c 11.63,-25.198 9.6219,-40.933 20.286,-58.794 17.442,-29.213 34.541,-30.474 50.467,-31.973 -12.703,36.396 -9.762,36.564 -23.746,58.732 -13.607,21.571 -32.096,24.474 -47.007,32.036 z"
       style="fill:#000000;fill-opacity:1"
       id="path3852" />
    <path
       d="m 202.25,648.92 c 6.628,-26.95 -0.10184,-35.197 6.973,-54.76 11.571,-31.996 28.119,-36.484 43.469,-40.983 -1.7651,21.479 0.89983,35.106 -11.139,58.387 -8.5015,16.44 -26.101,27.098 -39.303,37.356 z"
       style="fill:#000000;fill-opacity:1"
       id="path3854" />
    <path
       d="m 275.9,596.01 c 0,0 13.293,25.664 8.8773,55.408 -6.2559,42.144 -28.777,48.458 -28.777,48.458 0,0 -12.827,-19.155 -11.523,-58.022 1.3924,-41.516 31.423,-45.845 31.423,-45.845 z"
       style="fill:#000000;fill-opacity:1"
       id="path3856" />
    <path
       d="m 323.88,638.94 c 0,0 13.303,25.984 10.393,55.914 -3.7305,38.356 -24.736,47.953 -24.736,47.953 0,0 -13.232,-21.412 -13.796,-53.728 -0.86041,-49.346 28.14,-50.138 28.14,-50.138 z"
       style="fill:#000000;fill-opacity:1"
       id="path3858" />
    <path
       d="m 1140.9,49.002 c 18.278,12.277 38.479,27.48 54.76,44.437 28.887,30.086 57.536,64.004 82.159,97.941 16.634,22.926 38.215,57.715 50.006,83.305 15.691,34.056 24.985,57.915 33.597,95.332 12.132,52.713 10.46,106.81 -1.863,157.81 -18.129,75.031 -76.15,137.81 -134.13,188.77 -45.358,39.863 -106.34,65.942 -159.92,85.098 l -5.5,-14.62 c 53.098,-18.982 109.37,-44.319 152.84,-82.572 55.917,-49.203 107.56,-109.21 129.85,-180.73 13.566,-43.531 16.716,-91.295 9.5968,-137.54 -6.2375,-40.516 -21.918,-81.121 -37.193,-118.04 -12.558,-30.349 -27.2,-53.991 -45.06,-78.892 -22.645,-31.574 -47.529,-62.365 -73.981,-90.48 -17.123,-18.199 -40.023,-34.629 -58.415,-46.982 z"
       style="color:#000000;text-indent:0;text-transform:none;fill:#000000;fill-opacity:1"
       id="path3862" />
    <path
       d="m 1164.2,756.98 c 0,0 37.634,-11.898 67.5,-8.3929 47.415,5.5642 51.786,35 51.786,35 0,0 -19.022,11.809 -59.822,7.3214 -47.796,-5.2574 -59.464,-33.929 -59.464,-33.929 z"
       style="fill:#000000;fill-opacity:1"
       id="path3864" />
    <path
       d="m 1228.2,713.02 c 0,0 31.716,-15.044 61.786,-14.821 52.058,0.38562 55.179,28.036 55.179,28.036 0,0 -18.843,13.595 -60.536,13.036 -48.08,-0.64498 -56.429,-26.25 -56.429,-26.25 z"
       style="fill:#000000;fill-opacity:1"
       id="path3866" />
    <path
       d="m 1275.7,666.79 c 0,0 30.157,-26.43 59.326,-33.739 50.498,-12.653 67.224,16.73 67.224,16.73 0,0 -18.771,22.52 -59.277,32.411 -46.711,11.406 -67.273,-15.402 -67.273,-15.402 z"
       style="fill:#000000;fill-opacity:1"
       id="path3868" />
    <path
       d="m 1329.2,595.58 c 0,0 25.79,-27.185 61.094,-38.032 46.073,-14.156 67.729,13.636 68.361,14.331 0,0 -18.879,23.762 -58.266,34.179 -52.832,13.973 -71.188,-10.478 -71.188,-10.478 z"
       style="fill:#000000;fill-opacity:1"
       id="path3870" />
    <path
       d="m 1354.7,538.91 c 0,0 24.019,-36.576 59.844,-53.84 34.806,-16.774 60.229,-2.4885 60.861,-1.9259 0,0 -17.877,32.67 -50.767,48.325 -44.687,21.271 -69.938,7.4411 -69.938,7.4412 z"
       style="fill:#000000;fill-opacity:1"
       id="path3872" />
    <path
       d="m 1362.4,489.18 c 12.817,-12.059 13.774,-44.838 32.098,-71.441 25.563,-37.111 67.729,-34.419 68.36,-34.072 0,0 -4.5142,46.234 -36.481,74.178 -33.973,29.697 -63.978,31.335 -63.978,31.335 z"
       style="fill:#000000;fill-opacity:1"
       id="path3874" />
    <path
       d="m 1366,411.25 c 0,0 -1.2445,-40.185 9.3525,-70.701 14.783,-42.569 55.138,-50.926 55.839,-50.759 0,0 6.5444,45.519 -16.848,80.952 -24.86,37.657 -48.344,40.507 -48.344,40.507 z"
       style="fill:#000000;fill-opacity:1"
       id="path3876" />
    <path
       d="m 1348.9,335.94 c 0,0 -8.0496,-33.735 -3.9716,-65.78 6.1462,-48.297 43.73,-58.521 44.448,-58.451 0,0 12.884,44.733 -5.4449,83.031 -19.479,40.702 -35.031,41.2 -35.031,41.2 z"
       style="fill:#000000;fill-opacity:1"
       id="path3878" />
    <path
       d="m 1315.8,255.08 c 0,0 -13.089,-30.516 -11.412,-62.775 2.3279,-44.771 32.665,-63.685 33.385,-63.711 0,0 29.251,26.374 12.451,83.145 -10.191,34.437 -34.425,43.342 -34.425,43.342 z"
       style="fill:#000000;fill-opacity:1"
       id="path3880" />
    <path
       d="m 1273.6,188.6 c 0,0 -19.451,-29.962 -24.832,-61.814 -5.0516,-29.903 7.0803,-62.481 9.7885,-65.475 0,0 31.65,13.91 30.465,67.294 -0.7971,35.905 -15.422,59.995 -15.422,59.995 z"
       style="fill:#000000;fill-opacity:1"
       id="path3882" />
    <path
       d="m 1221.9,124.45 c 0,0 -23.192,-24.697 -29.233,-58.466 -5.0068,-27.989 0.034,-58.399 5.3103,-65.989 0,0 30.25,18.795 32.448,66.327 1.6588,35.875 -6.1261,52.95 -8.5252,58.127 z"
       style="fill:#000000;fill-opacity:1"
       id="path3884" />
    <path
       d="m 1184.4,85.107 c 0,0 -44.199,1.5969 -66.166,-11.157 -24.589,-14.276 -48.719,-45.263 -50.623,-54.309 0,0 38.712,-16.975 74.806,14.032 27.242,23.402 39.862,46.137 41.983,51.434 z"
       style="fill:#000000;fill-opacity:1"
       id="path3886" />
    <path
       d="m 1233.1,138.43 c 0,0 -21.141,-24.752 -57.469,-31.147 -28.002,-4.9287 -49.529,-0.37797 -63.35,7.6753 0,0 21.322,27.318 62.19,31.084 35.762,3.2949 53.376,-5.3854 58.63,-7.6124 z"
       style="fill:#000000;fill-opacity:1"
       id="path3888" />
    <path
       d="m 1276.7,195.5 c 0,0 -20.13,-23.742 -56.459,-30.136 -28.002,-4.9287 -41.448,0.12711 -55.269,8.1804 0,0 17.029,26.056 57.897,29.821 35.762,3.2949 48.578,-5.638 53.832,-7.8649 z"
       style="fill:#000000;fill-opacity:1"
       id="path3890" />
    <path
       d="m 1319.2,269.95 c 0,0 -18.805,-29.262 -52.808,-43.562 -34.843,-14.654 -52.739,-7.6569 -67.725,-2.0626 4.779,7.1686 24.337,37.05 56.046,46.02 34.557,9.7763 58.932,0.90881 64.487,-0.39556 z"
       style="fill:#000000;fill-opacity:1"
       id="path3892" />
    <path
       d="m 1344.3,336.07 c 0,0 -16.664,-30.532 -49.556,-47.228 -33.706,-17.109 -52.056,-11.41 -67.404,-6.9021 4.254,7.4921 21.624,38.696 52.61,49.912 33.77,12.223 58.716,5.1223 64.35,4.2186 z"
       style="fill:#000000;fill-opacity:1"
       id="path3894" />
    <path
       d="m 1357.5,414.65 c -14.421,-18.489 -22.261,-38.366 -44.449,-58.149 -27.336,-24.373 -50.792,-16.603 -66.711,-15.029 7.8366,14.719 19.603,38.003 43.92,55.546 29.126,21.011 61.536,17.473 67.24,17.633 z"
       style="fill:#000000;fill-opacity:1"
       id="path3896" />
    <path
       d="m 1355.8,487.05 c -12.262,-19.986 -18.081,-35.565 -37.916,-57.707 -24.437,-27.278 -47.605,-22.435 -63.6,-22.652 6.1404,15.503 16.49,38.695 38.692,58.849 26.592,24.138 57.174,20.713 62.824,21.51 z"
       style="fill:#000000;fill-opacity:1"
       id="path3898" />
    <path
       d="m 1340,544.78 c -18.448,-28.481 -16.12,-34.927 -34.176,-58.542 -19.392,-25.362 -43.885,-24.665 -59.811,-26.165 4.8772,15.946 12.166,37.517 32.837,59.237 22.045,23.163 44.975,20.181 61.149,25.47 z"
       style="fill:#000000;fill-opacity:1"
       id="path3900" />
    <path
       d="m 1309.7,601.35 c -11.63,-25.198 -9.6218,-40.933 -20.286,-58.794 -17.442,-29.213 -34.541,-30.474 -50.467,-31.973 12.703,36.396 9.7621,36.564 23.746,58.732 13.607,21.571 32.096,24.474 47.007,32.036 z"
       style="fill:#000000;fill-opacity:1"
       id="path3902" />
    <path
       d="m 1273.1,648.92 c -6.6279,-26.95 0.1019,-35.197 -6.973,-54.76 -11.571,-31.996 -28.119,-36.484 -43.469,-40.983 1.7651,21.479 -0.8999,35.106 11.139,58.387 8.5015,16.44 26.101,27.098 39.303,37.356 z"
       style="fill:#000000;fill-opacity:1"
       id="path3904" />
    <path
       d="m 1199.5,596.01 c 0,0 -13.293,25.664 -8.8773,55.408 6.2559,42.144 28.777,48.458 28.777,48.458 0,0 12.827,-19.155 11.523,-58.022 -1.3925,-41.516 -31.423,-45.845 -31.423,-45.845 z"
       style="fill:#000000;fill-opacity:1"
       id="path3906" />
    <path
       d="m 1151.5,638.94 c 0,0 -13.303,25.984 -10.392,55.914 3.7305,38.356 24.736,47.953 24.736,47.953 0,0 13.232,-21.412 13.796,-53.728 0.8605,-49.346 -28.14,-50.138 -28.14,-50.138 z"
       style="fill:#000000;fill-opacity:1"
       id="path3908" />
  </g>
  <metadata
     id="metadata50">
    <rdf:RDF>
      <cc:Work>
        <dc:format>image/svg+xml</dc:format>
        <dc:type
           rdf:resource="http://purl.org/dc/dcmitype/StillImage" />
        <cc:license
           rdf:resource="http://creativecommons.org/publicdomain/zero/1.0/" />
        <dc:publisher>
          <cc:Agent
             rdf:about="http://openclipart.org/">
            <dc:title>Openclipart</dc:title>
          </cc:Agent>
        </dc:publisher>
      </cc:Work>
      <cc:License
         rdf:about="http://creativecommons.org/publicdomain/zero/1.0/">
        <cc:permits
           rdf:resource="http://creativecommons.org/ns#Reproduction" />
        <cc:permits
           rdf:resource="http://creativecommons.org/ns#Distribution" />
        <cc:permits
           rdf:resource="http://creativecommons.org/ns#DerivativeWorks" />
      </cc:License>
    </rdf:RDF>
  </metadata>
  <g
     aria-label="Finalist"
     id="text864"
     style="font-size:40px;line-height:1.25;letter-spacing:0px;word-spacing:0px">
    <path
       d="m 517.68014,75.884943 q 0,-13.44 0.96,-20.96 0.96,-7.68 4,-11.52 3.04,-3.84 8.64,-4.64 5.6,-0.96 14.72,-0.96 5.12,0 9.28,0 4.16,0 8,0.16 4,0 7.84,0.16 4,0.16 8.64,0.32 3.84,0.32 5.92,0.96 2.08,0.48 3.2,1.44 1.12,0.96 1.28,2.24 0.32,1.28 0.32,2.88 0,2.88 -2.08,4.8 -1.92,1.92 -8.48,2.24 -4,0.16 -7.84,0.32 -3.68,0.16 -8.48,0.32 -4.64,0 -10.56,0.16 -5.92,0 -14.24,0 -2.88,0 -4,2.08 -1.12,1.92 -1.12,4.96 0,2.4 0,4.8 0.16,2.4 0.16,5.28 0.16,2.88 0.16,6.56 0.16,3.52 0.16,8.32 5.92,0 10.24,0.16 4.48,0 7.68,0.16 3.36,0 5.92,0.16 2.56,0.16 4.96,0.32 6.56,0.32 8.48,2.24 2.08,1.92 2.08,4.8 0,1.6 -0.32,2.88 -0.16,1.28 -1.28,2.24 -1.12,0.96 -3.2,1.599997 -2.08,0.64 -5.92,0.96 -2.56,0.16 -4.96,0.32 -2.24,0 -5.44,0.16 -3.04,0 -7.36,0 -4.32,0 -10.88,0 -0.16,9.6 -0.16,19.68 0.16,9.92 -0.48,20.48 -0.32,6.24 -2.24,7.68 -1.76,1.28 -5.44,1.28 -3.52,0 -5.28,-1.44 -1.76,-1.6 -2.08,-7.36 -0.32,-5.12 -0.48,-11.2 0,-6.24 -0.16,-14.08 -0.16,-8 -0.16,-17.919997 0,-10.08 0,-23.04 z"
       style="font-size:160px;font-family:Sniglet;-inkscape-font-specification:'Sniglet, Normal'"
       id="path1827" />
    <path
       d="m 605.36029,140.36494 q -0.32,-5.92 -0.64,-13.44 -0.16,-7.68 -0.16,-16.8 0,-11.359997 0.16,-19.359997 0.16,-8.16 0.8,-13.28 0.8,-5.28 2.4,-7.68 1.6,-2.56 4.48,-2.56 2.72,0 4.8,1.92 2.08,1.92 2.4,8.32 0.96,16.8 0.96,32.479997 0,8 -0.32,15.04 -0.32,6.88 -0.64,15.2 -0.16,3.84 -0.8,5.92 -0.48,2.08 -1.44,3.2 -0.96,1.12 -2.24,1.28 -1.12,0.32 -2.72,0.32 -2.88,0 -4.8,-1.92 -1.92,-2.08 -2.24,-8.64 z m 7.2,-102.079997 q 3.68,0 6.72,2.88 3.2,2.88 3.2,6.88 0,3.84 -3.2,6.72 -3.2,2.72 -7.2,2.72 -3.36,0 -6.4,-2.72 -2.88,-2.88 -2.88,-7.04 0,-3.84 2.88,-6.56 3.04,-2.88 6.88,-2.88 z"
       style="font-size:160px;font-family:Sniglet;-inkscape-font-specification:'Sniglet, Normal'"
       id="path1829" />
    <path
       d="m 678.00026,82.124943 q -5.92,0 -10.72,1.92 -4.64,1.92 -10.56,5.76 0,3.36 0,9.92 0,6.399997 -0.16,14.079997 -0.16,7.52 -0.32,14.88 -0.16,7.36 -0.64,12.32 -0.32,3.2 -0.8,5.12 -0.32,1.76 -1.12,2.72 -0.64,0.96 -1.92,1.28 -1.12,0.16 -3.04,0.16 -1.92,0 -3.2,-0.16 -1.12,-0.32 -1.92,-1.12 -0.8,-0.96 -1.28,-2.72 -0.48,-1.76 -0.8,-4.8 -0.32,-2.88 -0.64,-7.68 -0.16,-4.8 -0.32,-10.4 -0.16,-5.76 -0.32,-11.52 0,-5.92 0,-10.88 0,-8.159997 0.16,-13.279997 0.32,-5.12 0.96,-9.12 0.96,-6.72 2.56,-8.48 1.6,-1.76 4.32,-1.76 4,0 5.92,2.24 2.08,2.24 2.56,7.36 5.92,-5.12 12.64,-8.16 6.88,-3.04 14.08,-3.04 6.88,0 12.48,3.2 5.76,3.2 9.44,10.4 2.24,4.32 3.36,9.6 1.12,5.12 1.6,10.879997 0.16,2.56 0.32,5.12 0.16,2.4 0.16,5.28 0.16,2.72 0.16,6.24 0,3.52 0,8.32 0,5.12 -0.16,9.6 -0.16,4.48 -0.96,7.84 -0.64,3.2 -2.4,5.12 -1.76,1.76 -4.8,1.76 -7.36,0 -7.68,-7.04 0,-0.48 0,-4 0,-3.68 -0.16,-8.48 0,-4.8 -0.16,-9.76 0,-4.96 -0.16,-8.16 -0.16,-2.56 -0.48,-5.44 -0.16,-3.04 -0.64,-6.08 -0.32,-3.039997 -0.96,-5.759997 -0.64,-2.88 -1.6,-5.12 -2.24,-5.28 -5.6,-6.72 -3.36,-1.44 -7.2,-1.44 z"
       style="font-size:160px;font-family:Sniglet;-inkscape-font-specification:'Sniglet, Normal'"
       id="path1831" />
    <path
       d="m 795.12013,150.92494 q -2.56,0 -4.16,-0.8 -1.44,-0.96 -2.24,-2.4 -0.8,-1.44 -1.12,-3.36 -0.32,-2.08 -0.48,-4.32 -4,4.96 -10.4,8.32 -6.24,3.36 -16,3.36 -6.24,0 -12.8,-1.76 -6.4,-1.92 -11.68,-6.4 -5.28,-4.64 -8.64,-12.32 -3.36,-7.68 -3.36,-19.36 0,-9.12 2.24,-17.119997 2.24,-8 6.72,-13.92 4.64,-6.08 11.52,-9.6 6.88,-3.52 16.16,-3.52 8.16,0 14.56,3.04 6.4,2.88 11.52,9.6 0,-1.92 0.16,-3.84 0.16,-2.08 0.8,-3.68 0.8,-1.76 2.4,-2.72 1.6,-1.12 4.32,-1.12 2.4,0 4.48,1.92 2.08,1.92 2.4,8.32 0.48,8.48 0.64,15.2 0.32,6.719997 0.32,13.919997 0,8.8 -0.16,16.16 -0.16,7.36 -0.8,15.68 -0.32,3.68 -0.96,5.92 -0.48,2.08 -1.28,3.2 -0.8,0.96 -1.92,1.28 -1.12,0.32 -2.24,0.32 z m -8.64,-40.64 q 0,-8.32 -2.56,-13.599997 -2.4,-5.28 -6.24,-8.16 -3.68,-3.04 -8,-4.16 -4.32,-1.12 -8,-1.12 -5.76,0 -9.92,2.08 -4,2.08 -6.56,5.76 -2.56,3.52 -3.84,8.48 -1.12,4.799997 -1.12,10.559997 0,14.08 6.08,20.8 6.24,6.72 16.8,6.72 6.24,0 10.56,-2.08 4.48,-2.24 7.2,-5.92 2.88,-3.68 4.16,-8.64 1.44,-5.12 1.44,-10.72 z"
       style="font-size:160px;font-family:Sniglet;-inkscape-font-specification:'Sniglet, Normal'"
       id="path1833" />
    <path
       d="m 822.16012,141.00494 q -0.16,-5.76 -0.32,-13.44 -0.16,-7.68 -0.32,-16.64 0,-8.96 -0.16,-18.879997 0,-9.92 0,-20.32 0,-11.36 0.16,-19.52 0.16,-8.16 0.8,-13.44 0.8,-5.28 2.4,-7.68 1.6,-2.56 4.48,-2.56 2.72,0 4.8,1.76 2.08,1.76 2.4,8.16 0.64,11.52 0.8,24 0.16,12.32 0.16,24.32 0,7.2 0,13.919997 0,6.56 -0.16,13.12 -0.16,6.4 -0.32,13.12 -0.16,6.72 -0.48,13.92 -0.16,3.84 -0.8,5.92 -0.48,2.08 -1.44,3.2 -0.96,1.12 -2.24,1.28 -1.12,0.32 -2.72,0.32 -2.88,0 -4.8,-1.92 -1.92,-2.08 -2.24,-8.64 z"
       style="font-size:160px;font-family:Sniglet;-inkscape-font-specification:'Sniglet, Normal'"
       id="path1835" />
    <path
       d="m 858.16027,140.36494 q -0.32,-5.92 -0.64,-13.44 -0.16,-7.68 -0.16,-16.8 0,-11.359997 0.16,-19.359997 0.16,-8.16 0.8,-13.28 0.8,-5.28 2.4,-7.68 1.6,-2.56 4.48,-2.56 2.72,0 4.8,1.92 2.08,1.92 2.4,8.32 0.96,16.8 0.96,32.479997 0,8 -0.32,15.04 -0.32,6.88 -0.64,15.2 -0.16,3.84 -0.8,5.92 -0.48,2.08 -1.44,3.2 -0.96,1.12 -2.24,1.28 -1.12,0.32 -2.72,0.32 -2.88,0 -4.8,-1.92 -1.92,-2.08 -2.24,-8.64 z m 7.2,-102.079997 q 3.68,0 6.72,2.88 3.2,2.88 3.2,6.88 0,3.84 -3.2,6.72 -3.2,2.72 -7.2,2.72 -3.36,0 -6.4,-2.72 -2.88,-2.88 -2.88,-7.04 0,-3.84 2.88,-6.56 3.04,-2.88 6.88,-2.88 z"
       style="font-size:160px;font-family:Sniglet;-inkscape-font-specification:'Sniglet, Normal'"
       id="path1837" />
    <path
       d="m 921.36025,66.764943 q 3.36,0 8.48,0.64 5.12,0.48 9.76,2.08 4.64,1.44 8,4.16 3.36,2.72 3.36,6.88 0,2.4 -1.44,4.16 -1.28,1.76 -4.16,1.76 -2.08,0 -4.8,-0.64 -2.56,-0.64 -5.76,-1.44 -3.04,-0.96 -6.72,-1.6 -3.52,-0.64 -7.52,-0.64 -6.72,0 -11.04,2.08 -4.16,2.08 -4.16,6.56 0,2.56 1.44,4.32 1.6,1.76 4.16,3.2 2.72,1.28 6.24,2.239997 3.68,0.96 7.68,1.92 4.96,1.28 9.76,2.88 4.96,1.6 8.8,4.48 3.84,2.72 6.24,7.04 2.4,4.16 2.4,10.4 0,11.84 -8.96,18.88 -8.96,6.88 -26.4,6.88 -3.84,0 -9.12,-0.64 -5.28,-0.48 -9.92,-2.08 -4.64,-1.44 -8,-4.16 -3.2,-2.88 -3.2,-7.52 0,-3.2 1.44,-4.8 1.6,-1.76 3.84,-1.76 1.76,0 3.68,1.12 1.92,1.12 4.64,2.4 2.72,1.28 6.56,2.4 3.84,1.12 9.44,1.12 2.08,0 5.44,-0.16 3.36,-0.32 6.56,-1.44 3.36,-1.12 5.6,-3.04 2.4,-2.08 2.4,-5.76 0,-2.88 -1.6,-4.8 -1.6,-2.08 -4.32,-3.52 -2.72,-1.44 -6.4,-2.4 -3.52,-1.12 -7.52,-2.24 -4.64,-1.28 -9.44,-2.88 -4.64,-1.6 -8.48,-4.16 -3.84,-2.56 -6.24,-6.4 -2.4,-3.999997 -2.4,-9.759997 0,-5.44 2.24,-10.08 2.24,-4.8 6.4,-8.32 4.16,-3.52 9.92,-5.44 5.92,-1.92 13.12,-1.92 z"
       style="font-size:160px;font-family:Sniglet;-inkscape-font-specification:'Sniglet, Normal'"
       id="path1839" />
    <path
       d="m 980.5601,139.88494 q -0.48,-10.08 -0.64,-23.84 0,-13.92 0,-31.519997 -1.6,0.16 -3.84,0.16 -2.08,0 -3.36,0 -2.88,0 -5.28,-0.16 -2.24,-0.16 -4,-0.96 -1.76,-0.8 -2.72,-2.24 -0.96,-1.6 -0.96,-4.32 0,-7.68 11.52,-7.68 1.76,0 4.32,0 2.56,0 4.32,0.32 0,-8.48 0.32,-13.6 0.32,-5.12 1.12,-7.84 0.96,-2.88 2.4,-3.68 1.6,-0.96 4,-0.96 2.56,0 4.16,1.76 1.6,1.76 2.4,4.48 0.96,2.72 1.12,6.08 0.32,3.36 0.32,6.56 0,2.24 -0.16,4.16 0,1.76 0,3.2 2.24,-0.64 4.64,-0.64 2.4,-0.16 4.64,-0.16 5.92,0 9.12,1.92 3.2,1.76 3.2,5.92 0,2.56 -1.12,4.16 -1.12,1.44 -3.04,2.24 -1.76,0.8 -4.32,1.12 -2.4,0.16 -5.28,0.16 -1.6,0 -3.68,0 -2.08,0 -3.84,-0.32 0,8.48 0,15.52 0,7.039997 -0.16,13.599997 -0.16,6.4 -0.32,12.8 -0.16,6.4 -0.48,13.6 -0.16,3.84 -0.8,5.92 -0.48,2.08 -1.44,3.2 -0.96,1.12 -2.24,1.44 -1.12,0.16 -2.72,0.16 -2.88,0 -4.96,-1.92 -1.92,-2.08 -2.24,-8.64 z"
       style="font-size:160px;font-family:Sniglet;-inkscape-font-specification:'Sniglet, Normal'"
       id="path1841" />
  </g>
  <g
     id="g447"
     transform="matrix(2.1596939,0,0,2.1596939,552.51925,182.02829)">
			<path
   class="st1"
   d="m 151.6,110.6 c -0.2,-8.2 -0.4,-24.6 -2.2,-32.6 -0.8,-3.5 -3,-10.6 -5.4,-13.3 -3,-3.4 -6.2,-7.6 -15.9,-8.7 -6.2,-0.8 -18.6,-1.4 -24.8,-1.4 -6.2,0 -19.5,0.4 -24.4,1 -3.4,0.4 -7.8,0.8 -10.1,3.2 -2.2,2.2 -3.7,5.3 -4.4,7.4 -2.2,6.1 -3.3,17 -4.1,26.2 -8.1,-4.9 -20.1,-13 -20,-18.9 0.1,-4.4 14.9,-11.3 14.9,-11.3 2.4,3 5.2,4.3 5.8,1.4 0.4,-2.2 -6.2,-8.7 -1.2,-14.5 3.5,-4.1 6.7,-1.7 8.1,0.2 0.8,1 3.4,3.6 5.4,2.4 2.1,-1.2 -1.6,-7.2 -3.6,-8.5 C 66.4,40.9 58.6,40 54.4,44.8 50.3,49.3 53,58.3 53,58.3 c 0,0 -20.8,7.2 -21.7,13.5 -1.3,9.2 18,25.1 28.1,32.7 -0.4,8.6 -0.6,23.1 0.1,30.7 0.3,3.5 1.7,10.7 3.6,13.7 1.6,2.6 3.8,5.8 9.3,7.9 2.5,1 6.3,1.7 10.3,2.1 -1.5,7.1 3.1,25 3.1,25 0,0 -2.4,-1 -6.6,-0.4 -6.6,0.9 -8.9,6 -8.9,6 0,0 5.4,1 11.3,1 5.2,0 9.7,-1.4 9.7,-1.4 0,0 -0.7,-21 1.2,-29.4 2.7,0.1 5.2,0.2 7.1,0.3 4.2,0.2 10.8,0.3 17.1,0.1 1.9,7.5 -0.5,28.4 -0.5,28.4 0,0 4.9,1.5 10,1.9 5.9,0.4 10.7,-1.6 10.7,-1.6 0,0 -1.7,-3.6 -8.3,-5 -4.1,-0.9 -6.6,-0.1 -6.6,-0.1 0,0 5.4,-15.9 3.9,-24.1 1.7,-0.2 3.3,-0.4 4.6,-0.6 3.5,-0.6 11.1,-1.9 13.5,-4.6 6,-6.6 5.8,-10.3 6.6,-16.7 1.1,-6.6 1.1,-20.3 1,-27.1"
   id="path441"
   style="fill:#1a1a1a" />

			<path
   class="st0"
   d="m 104.1,66.1 c -10.7,-0.8 -21.9,1.8 -24.6,14.3 -2.7,12.2 6.2,20.3 14.9,23.1 25.4,8.1 37.6,-0.3 39.3,-10.3 3.6,-20.8 -19.6,-26.4 -29.6,-27.1"
   id="path443"
   style="fill:#ffffff" />

			<path
   class="st1"
   d="m 109.5,73.4 c -1.5,1 -3.4,4.2 -0.8,7.8 1.4,1.9 5.4,4.6 8.9,2.2 3.2,-2.1 3,-5.2 1.2,-7.8 -1.5,-2.2 -5.3,-4.8 -9.3,-2.2"
   id="path445"
   style="fill:#1a1a1a" />

		</g>
  <g
     aria-label="Most Anticipated Game"
     id="text864-9"
     style="font-size:80px;line-height:1.25;letter-spacing:0px;word-spacing:0px">
    <path
       d="m 363.2003,233.56 q -3.68,-8.08 -6.56,-15.6 -2.8,-7.6 -4.8,-13.52 -1.84,9.92 -3.12,20 -1.2,10.08 -3.12,19.28 -0.48,2.08 -1.76,2.8 -1.28,0.64 -2.16,0.64 -1.44,0 -2.32,-0.88 -0.8,-0.88 -0.8,-2.24 0,-1.84 0.4,-5.6 0.48,-3.84 1.12,-8.64 0.72,-4.8 1.6,-10.08 0.88,-5.28 1.76,-10.16 0.96,-4.96 1.76,-8.96 0.88,-4 1.52,-6.16 1.04,-3.68 4.24,-3.68 1.92,0 3.28,1.92 1.36,1.84 2.88,5.76 1.6,3.84 3.76,9.76 2.24,5.92 5.76,13.92 3.44,-8 5.52,-13.84 2.16,-5.92 3.6,-9.76 1.52,-3.92 2.88,-5.76 1.36,-1.92 3.36,-1.92 1.84,0 2.8,0.96 0.96,0.88 1.44,2.72 0.56,2.24 1.36,6.24 0.8,3.92 1.68,8.8 0.96,4.8 1.84,10.08 0.88,5.28 1.6,10.08 0.72,4.8 1.12,8.72 0.48,3.84 0.48,5.92 0,1.28 -0.88,2.08 -0.88,0.72 -2.24,0.72 -0.88,0 -2.16,-0.64 -1.28,-0.72 -1.76,-2.8 -0.96,-4.56 -1.76,-9.44 -0.72,-4.88 -1.44,-9.84 -0.64,-5.04 -1.28,-10 -0.64,-5.04 -1.36,-10 -1.04,3.2 -2.4,7.04 -1.36,3.84 -2.88,7.76 -1.52,3.84 -3.12,7.6 -1.6,3.76 -3.12,6.8 -0.56,1.04 -1.52,1.6 -0.88,0.48 -1.84,0.48 -1.04,0 -2,-0.48 -0.88,-0.56 -1.36,-1.68 z"
       style="font-family:Sniglet;-inkscape-font-specification:'Sniglet, Normal'"
       id="path1844" />
    <path
       d="m 419.68019,206.6 q 4.56,0 8.16,1.44 3.6,1.36 6.08,3.92 2.56,2.56 3.92,6.24 1.36,3.68 1.36,8.24 0,5.04 -1.6,9.04 -1.52,4 -4.32,6.8 -2.72,2.8 -6.56,4.32 -3.76,1.52 -8.24,1.52 -4.88,0 -8.64,-1.68 -3.68,-1.68 -6.24,-4.56 -2.48,-2.88 -3.76,-6.64 -1.28,-3.76 -1.28,-7.92 0,-4.56 1.44,-8.32 1.52,-3.84 4.24,-6.56 2.8,-2.8 6.72,-4.32 3.92,-1.52 8.72,-1.52 z m -0.88,34.16 q 3.28,0 5.6,-1.12 2.32,-1.2 3.76,-3.12 1.52,-1.92 2.16,-4.32 0.72,-2.48 0.72,-5.12 0,-2.72 -0.72,-5.04 -0.64,-2.4 -2.08,-4.16 -1.36,-1.76 -3.6,-2.72 -2.16,-1.04 -5.2,-1.04 -3.12,0 -5.44,1.04 -2.32,1.04 -3.92,2.88 -1.52,1.76 -2.32,4.24 -0.8,2.48 -0.8,5.36 0,5.84 2.96,9.52 3.04,3.6 8.88,3.6 z"
       style="font-family:Sniglet;-inkscape-font-specification:'Sniglet, Normal'"
       id="path1846" />
    <path
       d="m 460.40012,205.4 q 1.68,0 4.24,0.32 2.56,0.24 4.88,1.04 2.32,0.72 4,2.08 1.68,1.36 1.68,3.44 0,1.2 -0.72,2.08 -0.64,0.88 -2.08,0.88 -1.04,0 -2.4,-0.32 -1.28,-0.32 -2.88,-0.72 -1.52,-0.48 -3.36,-0.8 -1.76,-0.32 -3.76,-0.32 -3.36,0 -5.52,1.04 -2.08,1.04 -2.08,3.28 0,1.28 0.72,2.16 0.8,0.88 2.08,1.6 1.36,0.64 3.12,1.12 1.84,0.48 3.84,0.96 2.48,0.64 4.88,1.44 2.48,0.8 4.4,2.24 1.92,1.36 3.12,3.52 1.2,2.08 1.2,5.2 0,5.92 -4.48,9.44 -4.48,3.44 -13.2,3.44 -1.92,0 -4.56,-0.32 -2.64,-0.24 -4.96,-1.04 -2.32,-0.72 -4,-2.08 -1.6,-1.44 -1.6,-3.76 0,-1.6 0.72,-2.4 0.8,-0.88 1.92,-0.88 0.88,0 1.84,0.56 0.96,0.56 2.32,1.2 1.36,0.64 3.28,1.2 1.92,0.56 4.72,0.56 1.04,0 2.72,-0.08 1.68,-0.16 3.28,-0.72 1.68,-0.56 2.8,-1.52 1.2,-1.04 1.2,-2.88 0,-1.44 -0.8,-2.4 -0.8,-1.04 -2.16,-1.76 -1.36,-0.72 -3.2,-1.2 -1.76,-0.56 -3.76,-1.12 -2.32,-0.64 -4.72,-1.44 -2.32,-0.8 -4.24,-2.08 -1.92,-1.28 -3.12,-3.2 -1.2,-2 -1.2,-4.88 0,-2.72 1.12,-5.04 1.12,-2.4 3.2,-4.16 2.08,-1.76 4.96,-2.72 2.96,-0.96 6.56,-0.96 z"
       style="font-family:Sniglet;-inkscape-font-specification:'Sniglet, Normal'"
       id="path1848" />
    <path
       d="m 490.00005,241.96 q -0.24,-5.04 -0.32,-11.92 0,-6.96 0,-15.76 -0.8,0.08 -1.92,0.08 -1.04,0 -1.68,0 -1.44,0 -2.64,-0.08 -1.12,-0.08 -2,-0.48 -0.88,-0.4 -1.36,-1.12 -0.48,-0.8 -0.48,-2.16 0,-3.84 5.76,-3.84 0.88,0 2.16,0 1.28,0 2.16,0.16 0,-4.24 0.16,-6.8 0.16,-2.56 0.56,-3.92 0.48,-1.44 1.2,-1.84 0.8,-0.48 2,-0.48 1.28,0 2.08,0.88 0.8,0.88 1.2,2.24 0.48,1.36 0.56,3.04 0.16,1.68 0.16,3.28 0,1.12 -0.08,2.08 0,0.88 0,1.6 1.12,-0.32 2.32,-0.32 1.2,-0.08 2.32,-0.08 2.96,0 4.56,0.96 1.6,0.88 1.6,2.96 0,1.28 -0.56,2.08 -0.56,0.72 -1.52,1.12 -0.88,0.4 -2.16,0.56 -1.2,0.08 -2.64,0.08 -0.8,0 -1.84,0 -1.04,0 -1.92,-0.16 0,4.24 0,7.76 0,3.52 -0.08,6.8 -0.08,3.2 -0.16,6.4 -0.08,3.2 -0.24,6.8 -0.08,1.92 -0.4,2.96 -0.24,1.04 -0.72,1.6 -0.48,0.56 -1.12,0.72 -0.56,0.08 -1.36,0.08 -1.44,0 -2.48,-0.96 -0.96,-1.04 -1.12,-4.32 z"
       style="font-family:Sniglet;-inkscape-font-specification:'Sniglet, Normal'"
       id="path1850" />
    <path
       d="m 565.03997,243.08 q -0.8,-1.92 -1.76,-4.4 -0.88,-2.56 -1.92,-5.36 -2.4,0.08 -5.04,0.16 -2.64,0 -5.36,0 -3.44,0 -6.24,0 -2.8,0 -5.12,-0.08 -0.96,2.8 -1.84,5.28 -0.88,2.48 -1.68,4.4 -1.6,4.08 -4.64,4.08 -1.12,0 -2.16,-0.72 -0.96,-0.72 -0.96,-2.08 0,-1.36 0.48,-3.52 0.48,-2.24 1.2,-4.72 0.8,-2.56 1.68,-5.2 0.88,-2.72 1.68,-5.04 0.8,-2.56 2.24,-6.48 1.52,-4 3.2,-8.32 1.68,-4.32 3.36,-8.48 1.68,-4.24 3.04,-7.36 0.32,-0.8 0.8,-1.76 0.48,-1.04 1.12,-1.92 0.72,-0.88 1.52,-1.52 0.88,-0.64 1.92,-0.64 1.04,0 1.92,0.72 0.88,0.64 1.52,1.6 0.72,0.96 1.2,2 0.56,1.04 0.88,1.84 1.28,3.2 2.88,7.36 1.68,4.16 3.28,8.4 1.68,4.24 3.12,8.08 1.44,3.84 2.32,6.48 0.72,2.32 1.6,4.96 0.96,2.64 1.76,5.2 0.8,2.56 1.28,4.8 0.56,2.16 0.56,3.52 0,1.36 -1.04,2.08 -0.96,0.72 -2.08,0.72 -1.44,0 -2.64,-0.96 -1.2,-1.04 -2.08,-3.12 z m -14.16,-17.6 q 1.92,0 3.84,0.08 1.92,0 3.84,0.08 -0.96,-2.8 -1.92,-5.6 -0.96,-2.8 -1.84,-5.36 -0.8,-2.56 -1.52,-4.72 -0.64,-2.24 -1.12,-3.92 -0.32,-1.04 -0.72,-1.68 -0.4,-0.64 -1.04,-0.64 -0.64,0 -1.04,0.72 -0.4,0.64 -0.72,1.68 -0.96,3.28 -2.72,8.56 -1.68,5.2 -3.6,10.96 2.16,-0.08 4.32,-0.08 2.16,-0.08 4.24,-0.08 z"
       style="font-family:Sniglet;-inkscape-font-specification:'Sniglet, Normal'"
       id="path1852" />
    <path
       d="m 598.15998,213.08 q -2.96,0 -5.36,0.96 -2.32,0.96 -5.28,2.88 0,1.68 0,4.96 0,3.2 -0.08,7.04 -0.08,3.76 -0.16,7.44 -0.08,3.68 -0.32,6.16 -0.16,1.6 -0.4,2.56 -0.16,0.88 -0.56,1.36 -0.32,0.48 -0.96,0.64 -0.56,0.08 -1.52,0.08 -0.96,0 -1.6,-0.08 -0.56,-0.16 -0.96,-0.56 -0.4,-0.48 -0.64,-1.36 -0.24,-0.88 -0.4,-2.4 -0.16,-1.44 -0.32,-3.84 -0.08,-2.4 -0.16,-5.2 -0.08,-2.88 -0.16,-5.76 0,-2.96 0,-5.44 0,-4.08 0.08,-6.64 0.16,-2.56 0.48,-4.56 0.48,-3.36 1.28,-4.24 0.8,-0.88 2.16,-0.88 2,0 2.96,1.12 1.04,1.12 1.28,3.68 2.96,-2.56 6.32,-4.08 3.44,-1.52 7.04,-1.52 3.44,0 6.24,1.6 2.88,1.6 4.72,5.2 1.12,2.16 1.68,4.8 0.56,2.56 0.8,5.44 0.08,1.28 0.16,2.56 0.08,1.2 0.08,2.64 0.08,1.36 0.08,3.12 0,1.76 0,4.16 0,2.56 -0.08,4.8 -0.08,2.24 -0.48,3.92 -0.32,1.6 -1.2,2.56 -0.88,0.88 -2.4,0.88 -3.68,0 -3.84,-3.52 0,-0.24 0,-2 0,-1.84 -0.08,-4.24 0,-2.4 -0.08,-4.88 0,-2.48 -0.08,-4.08 -0.08,-1.28 -0.24,-2.72 -0.08,-1.52 -0.32,-3.04 -0.16,-1.52 -0.48,-2.88 -0.32,-1.44 -0.8,-2.56 -1.12,-2.64 -2.8,-3.36 -1.68,-0.72 -3.6,-0.72 z"
       style="font-family:Sniglet;-inkscape-font-specification:'Sniglet, Normal'"
       id="path1854" />
    <path
       d="m 629.59997,241.96 q -0.24,-5.04 -0.32,-11.92 0,-6.96 0,-15.76 -0.8,0.08 -1.92,0.08 -1.04,0 -1.68,0 -1.44,0 -2.64,-0.08 -1.12,-0.08 -2,-0.48 -0.88,-0.4 -1.36,-1.12 -0.48,-0.8 -0.48,-2.16 0,-3.84 5.76,-3.84 0.88,0 2.16,0 1.28,0 2.16,0.16 0,-4.24 0.16,-6.8 0.16,-2.56 0.56,-3.92 0.48,-1.44 1.2,-1.84 0.8,-0.48 2,-0.48 1.28,0 2.08,0.88 0.8,0.88 1.2,2.24 0.48,1.36 0.56,3.04 0.16,1.68 0.16,3.28 0,1.12 -0.08,2.08 0,0.88 0,1.6 1.12,-0.32 2.32,-0.32 1.2,-0.08 2.32,-0.08 2.96,0 4.56,0.96 1.6,0.88 1.6,2.96 0,1.28 -0.56,2.08 -0.56,0.72 -1.52,1.12 -0.88,0.4 -2.16,0.56 -1.2,0.08 -2.64,0.08 -0.8,0 -1.84,0 -1.04,0 -1.92,-0.16 0,4.24 0,7.76 0,3.52 -0.08,6.8 -0.08,3.2 -0.16,6.4 -0.08,3.2 -0.24,6.8 -0.08,1.92 -0.4,2.96 -0.24,1.04 -0.72,1.6 -0.48,0.56 -1.12,0.72 -0.56,0.08 -1.36,0.08 -1.44,0 -2.48,-0.96 -0.96,-1.04 -1.12,-4.32 z"
       style="font-family:Sniglet;-inkscape-font-specification:'Sniglet, Normal'"
       id="path1856" />
    <path
       d="m 655.03991,242.2 q -0.16,-2.96 -0.32,-6.72 -0.08,-3.84 -0.08,-8.4 0,-5.68 0.08,-9.68 0.08,-4.08 0.4,-6.64 0.4,-2.64 1.2,-3.84 0.8,-1.28 2.24,-1.28 1.36,0 2.4,0.96 1.04,0.96 1.2,4.16 0.48,8.4 0.48,16.24 0,4 -0.16,7.52 -0.16,3.44 -0.32,7.6 -0.08,1.92 -0.4,2.96 -0.24,1.04 -0.72,1.6 -0.48,0.56 -1.12,0.64 -0.56,0.16 -1.36,0.16 -1.44,0 -2.4,-0.96 -0.96,-1.04 -1.12,-4.32 z m 3.6,-51.04 q 1.84,0 3.36,1.44 1.6,1.44 1.6,3.44 0,1.92 -1.6,3.36 -1.6,1.36 -3.6,1.36 -1.68,0 -3.2,-1.36 -1.44,-1.44 -1.44,-3.52 0,-1.92 1.44,-3.28 1.52,-1.44 3.44,-1.44 z"
       style="font-family:Sniglet;-inkscape-font-specification:'Sniglet, Normal'"
       id="path1858" />
    <path
       d="m 690.7999,206.36 q 2.32,0 4.64,0.4 2.4,0.4 4.32,1.12 1.92,0.72 3.12,1.76 1.2,1.04 1.2,2.4 0,3.52 -4,3.52 -0.96,0 -1.84,-0.24 -0.8,-0.32 -1.92,-0.56 -1.12,-0.32 -2.8,-0.56 -1.68,-0.32 -4.16,-0.32 -5.28,0 -8.16,3.6 -2.88,3.6 -2.88,9.36 0,6.32 2.88,10.16 2.96,3.84 8.32,3.84 3.36,0 5.44,-0.56 2.08,-0.56 3.36,-1.28 1.36,-0.72 2.16,-1.28 0.88,-0.56 1.92,-0.56 1.44,0 2.24,0.64 0.88,0.56 0.88,2.4 0,1.92 -1.52,3.36 -1.44,1.44 -3.68,2.4 -2.24,0.96 -4.88,1.44 -2.56,0.48 -4.72,0.48 -9.68,0 -15.2,-5.36 -5.52,-5.36 -5.52,-15.2 0,-4.24 1.28,-8 1.36,-3.84 4,-6.72 2.64,-2.88 6.48,-4.56 3.92,-1.68 9.04,-1.68 z"
       style="font-family:Sniglet;-inkscape-font-specification:'Sniglet, Normal'"
       id="path1860" />
    <path
       d="m 712.87988,242.2 q -0.16,-2.96 -0.32,-6.72 -0.08,-3.84 -0.08,-8.4 0,-5.68 0.08,-9.68 0.08,-4.08 0.4,-6.64 0.4,-2.64 1.2,-3.84 0.8,-1.28 2.24,-1.28 1.36,0 2.4,0.96 1.04,0.96 1.2,4.16 0.48,8.4 0.48,16.24 0,4 -0.16,7.52 -0.16,3.44 -0.32,7.6 -0.08,1.92 -0.4,2.96 -0.24,1.04 -0.72,1.6 -0.48,0.56 -1.12,0.64 -0.56,0.16 -1.36,0.16 -1.44,0 -2.4,-0.96 -0.96,-1.04 -1.12,-4.32 z m 3.6,-51.04 q 1.84,0 3.36,1.44 1.6,1.44 1.6,3.44 0,1.92 -1.6,3.36 -1.6,1.36 -3.6,1.36 -1.68,0 -3.2,-1.36 -1.44,-1.44 -1.44,-3.52 0,-1.92 1.44,-3.28 1.52,-1.44 3.44,-1.44 z"
       style="font-family:Sniglet;-inkscape-font-specification:'Sniglet, Normal'"
       id="path1862" />
    <path
       d="m 739.11987,258.68 q 0,1.52 -0.08,2.88 -0.08,1.44 -0.56,2.56 -0.4,1.12 -1.28,1.76 -0.8,0.72 -2.32,0.72 -1.76,0 -2.96,-1.28 -1.12,-1.2 -1.28,-4.32 -0.08,-2 -0.24,-4.88 -0.16,-2.88 -0.32,-6.08 -0.08,-3.2 -0.24,-6.4 -0.08,-3.2 -0.08,-5.92 0,-9.36 1.28,-15.44 1.36,-6.08 4,-9.68 2.64,-3.6 6.48,-5.04 3.92,-1.44 9.04,-1.44 4.08,0 7.68,1.28 3.6,1.2 6.24,3.84 2.72,2.56 4.32,6.72 1.6,4.08 1.6,9.84 0,4.8 -1.68,8.48 -1.6,3.68 -4.48,6.24 -2.88,2.48 -6.8,3.84 -3.84,1.28 -8.24,1.28 -3.76,0 -6.8,-1.52 -2.96,-1.6 -4.24,-3.44 0.4,4.48 0.64,8.32 0.32,3.84 0.32,7.68 z m 11.04,-44.56 q -2.8,0 -4.88,0.96 -2,0.96 -3.28,2.64 -1.28,1.68 -1.92,4 -0.56,2.32 -0.56,5.04 0,2.64 0.48,5.04 0.56,2.32 1.76,4.08 1.2,1.76 3.2,2.8 2,1.04 4.88,1.04 2.24,0 4.32,-0.56 2.08,-0.64 3.68,-2.08 1.68,-1.44 2.64,-3.84 1.04,-2.4 1.04,-6 0,-3.68 -1.04,-6.16 -0.96,-2.56 -2.64,-4.08 -1.6,-1.6 -3.68,-2.24 -2,-0.64 -4,-0.64 z"
       style="font-family:Sniglet;-inkscape-font-specification:'Sniglet, Normal'"
       id="path1864" />
    <path
       d="m 810.31992,247.48 q -1.28,0 -2.08,-0.4 -0.72,-0.48 -1.12,-1.2 -0.4,-0.72 -0.56,-1.68 -0.16,-1.04 -0.24,-2.16 -2,2.48 -5.2,4.16 -3.12,1.68 -8,1.68 -3.12,0 -6.4,-0.88 -3.2,-0.96 -5.84,-3.2 -2.64,-2.32 -4.32,-6.16 -1.68,-3.84 -1.68,-9.68 0,-4.56 1.12,-8.56 1.12,-4 3.36,-6.96 2.32,-3.04 5.76,-4.8 3.44,-1.76 8.08,-1.76 4.08,0 7.28,1.52 3.2,1.44 5.76,4.8 0,-0.96 0.08,-1.92 0.08,-1.04 0.4,-1.84 0.4,-0.88 1.2,-1.36 0.8,-0.56 2.16,-0.56 1.2,0 2.24,0.96 1.04,0.96 1.2,4.16 0.24,4.24 0.32,7.6 0.16,3.36 0.16,6.96 0,4.4 -0.08,8.08 -0.08,3.68 -0.4,7.84 -0.16,1.84 -0.48,2.96 -0.24,1.04 -0.64,1.6 -0.4,0.48 -0.96,0.64 -0.56,0.16 -1.12,0.16 z m -4.32,-20.32 q 0,-4.16 -1.28,-6.8 -1.2,-2.64 -3.12,-4.08 -1.84,-1.52 -4,-2.08 -2.16,-0.56 -4,-0.56 -2.88,0 -4.96,1.04 -2,1.04 -3.28,2.88 -1.28,1.76 -1.92,4.24 -0.56,2.4 -0.56,5.28 0,7.04 3.04,10.4 3.12,3.36 8.4,3.36 3.12,0 5.28,-1.04 2.24,-1.12 3.6,-2.96 1.44,-1.84 2.08,-4.32 0.72,-2.56 0.72,-5.36 z"
       style="font-family:Sniglet;-inkscape-font-specification:'Sniglet, Normal'"
       id="path1866" />
    <path
       d="m 830.23992,241.96 q -0.24,-5.04 -0.32,-11.92 0,-6.96 0,-15.76 -0.8,0.08 -1.92,0.08 -1.04,0 -1.68,0 -1.44,0 -2.64,-0.08 -1.12,-0.08 -2,-0.48 -0.88,-0.4 -1.36,-1.12 -0.48,-0.8 -0.48,-2.16 0,-3.84 5.76,-3.84 0.88,0 2.16,0 1.28,0 2.16,0.16 0,-4.24 0.16,-6.8 0.16,-2.56 0.56,-3.92 0.48,-1.44 1.2,-1.84 0.8,-0.48 2,-0.48 1.28,0 2.08,0.88 0.8,0.88 1.2,2.24 0.48,1.36 0.56,3.04 0.16,1.68 0.16,3.28 0,1.12 -0.08,2.08 0,0.88 0,1.6 1.12,-0.32 2.32,-0.32 1.2,-0.08 2.32,-0.08 2.96,0 4.56,0.96 1.6,0.88 1.6,2.96 0,1.28 -0.56,2.08 -0.56,0.72 -1.52,1.12 -0.88,0.4 -2.16,0.56 -1.2,0.08 -2.64,0.08 -0.8,0 -1.84,0 -1.04,0 -1.92,-0.16 0,4.24 0,7.76 0,3.52 -0.08,6.8 -0.08,3.2 -0.16,6.4 -0.08,3.2 -0.24,6.8 -0.08,1.92 -0.4,2.96 -0.24,1.04 -0.72,1.6 -0.48,0.56 -1.12,0.72 -0.56,0.08 -1.36,0.08 -1.44,0 -2.48,-0.96 -0.96,-1.04 -1.12,-4.32 z"
       style="font-family:Sniglet;-inkscape-font-specification:'Sniglet, Normal'"
       id="path1868" />
    <path
       d="m 872.79985,232.44 q -2.8,0 -5.92,-0.4 -3.04,-0.48 -6.64,-1.92 0.72,4.88 4,7.36 3.36,2.48 9.6,2.48 2.24,0 4,-0.24 1.84,-0.32 3.2,-0.64 1.36,-0.4 2.4,-0.64 1.04,-0.32 1.92,-0.32 1.12,0 2.16,0.72 1.04,0.64 1.04,2.24 0,2 -1.68,3.28 -1.6,1.28 -4,2.08 -2.32,0.72 -4.96,0.96 -2.64,0.32 -4.64,0.32 -4.72,0 -8.72,-1.28 -3.92,-1.28 -6.8,-3.84 -2.88,-2.64 -4.48,-6.48 -1.6,-3.84 -1.6,-8.96 0,-4.96 1.52,-8.8 1.6,-3.84 4.32,-6.48 2.72,-2.64 6.4,-4 3.76,-1.36 8.08,-1.36 3.36,0 6.48,0.88 3.2,0.88 5.6,2.64 2.48,1.76 3.92,4.48 1.52,2.64 1.52,6.24 0,3.2 -1.2,5.44 -1.2,2.24 -3.44,3.6 -2.16,1.36 -5.28,2 -3.04,0.64 -6.8,0.64 z m -0.56,-18.56 q -2.16,0 -4.16,0.56 -2,0.48 -3.68,1.68 -1.6,1.12 -2.72,3.04 -1.12,1.84 -1.52,4.64 3.04,1.36 5.92,1.92 2.88,0.48 6.08,0.48 4.72,0 6.96,-1.12 2.32,-1.2 2.32,-4.24 0,-2.8 -2.16,-4.88 -2.08,-2.08 -7.04,-2.08 z"
       style="font-family:Sniglet;-inkscape-font-specification:'Sniglet, Normal'"
       id="path1870" />
    <path
       d="m 930.47984,247 q -1.6,0 -2.72,-1.28 -1.04,-1.28 -1.44,-2.96 -0.96,0.88 -2.24,1.76 -1.2,0.88 -2.8,1.68 -1.6,0.72 -3.52,1.2 -1.92,0.48 -4.16,0.48 -2.72,0 -6.08,-0.88 -3.28,-0.96 -6.24,-3.2 -2.88,-2.32 -4.88,-6.24 -1.92,-3.92 -1.92,-9.84 0,-5.04 1.52,-8.96 1.52,-3.92 4.24,-6.56 2.8,-2.72 6.56,-4.08 3.84,-1.44 8.32,-1.44 3.84,0 6.08,0.88 2.24,0.88 3.52,2.08 0,-2.16 0,-4.88 0,-2.8 0,-5.36 0.08,-2.64 0.08,-4.8 0.08,-2.16 0.16,-3.28 0.16,-2.72 0.96,-3.68 0.8,-1.04 2.8,-1.04 2.08,0 2.8,1.04 0.8,0.96 0.96,3.44 0.08,1.04 0.08,2.8 0.08,1.76 0.08,3.84 0,2.08 0,4.24 0.08,2.08 0.08,3.84 0,1.68 0,2.8 0,1.12 0,1.12 0,8.16 -0.16,15.04 -0.08,6.88 -0.08,10.96 0.16,0.88 0.64,1.68 0.56,0.8 1.12,1.6 0.64,0.8 1.12,1.68 0.48,0.88 0.48,1.84 0,1.12 -0.56,2 -0.56,0.8 -1.44,1.36 -0.8,0.56 -1.76,0.88 -0.88,0.24 -1.6,0.24 z m -15.44,-7.04 q 4.96,0 7.6,-2.96 2.64,-2.96 2.64,-9.76 0,-13.04 -10.32,-13.04 -2.4,0 -4.64,0.72 -2.24,0.72 -4,2.24 -1.68,1.52 -2.8,3.84 -1.04,2.32 -1.04,5.52 0,2.64 0.72,5.04 0.8,2.4 2.32,4.32 1.6,1.84 3.92,2.96 2.4,1.12 5.6,1.12 z"
       style="font-family:Sniglet;-inkscape-font-specification:'Sniglet, Normal'"
       id="path1872" />
    <path
       d="m 983.27974,190.52 q 2.64,0 5.44,0.48 2.8,0.48 5.12,1.44 2.32,0.88 3.84,2.24 1.52,1.36 1.52,3.12 0,1.84 -0.96,2.8 -0.96,0.96 -2.4,0.96 -1.36,0 -2.56,-0.48 -1.12,-0.48 -2.56,-1.04 -1.44,-0.56 -3.44,-1.04 -2,-0.48 -5.04,-0.48 -3.36,0 -6.32,1.6 -2.88,1.52 -5.12,4.32 -2.24,2.72 -3.52,6.48 -1.28,3.76 -1.28,8.16 0,5.36 1.36,9.28 1.36,3.92 3.52,6.48 2.24,2.56 4.96,3.84 2.8,1.2 5.6,1.2 4.56,0 7.2,-1.28 2.72,-1.36 4.32,-3.44 0.08,-1.68 0.08,-4 0,-2.32 0,-5.04 0,-1.04 -0.16,-1.6 -0.16,-0.64 -0.8,-0.96 -0.64,-0.32 -1.92,-0.4 -1.2,-0.08 -3.28,-0.08 -2.56,0 -4.16,-0.64 -1.6,-0.72 -1.6,-2.96 0,-1.6 0.8,-2.56 0.88,-1.04 3.52,-1.2 0.48,0 1.52,0 1.12,-0.08 2.32,-0.08 1.28,0 2.48,0 1.2,0 1.92,0 2.4,0 3.84,0.48 1.44,0.4 2.55996,1.92 0.56,0.8 0.64,2.8 0.16,2 0.16,4.64 v 20.64 q 0,2.16 -1.19996,3.2 -1.12,1.04 -2.64,1.04 -1.84,0 -3.04,-0.96 -1.12,-0.88 -1.12,-2.88 v -3.12 q -2.08,2.4 -4.96,3.44 -2.8,1.04 -7.12,1.04 -4.4,0 -8.64,-1.76 -4.24,-1.76 -7.52,-5.2 -3.28,-3.52 -5.36,-8.72 -2,-5.28 -2,-12.24 0,-6.96 2,-12.4 2.08,-5.44 5.6,-9.2 3.52,-3.84 8.24,-5.84 4.72,-2 10.16,-2 z"
       style="font-family:Sniglet;-inkscape-font-specification:'Sniglet, Normal'"
       id="path1874" />
    <path
       d="m 1042.5597,247.48 q -1.28,0 -2.08,-0.4 -0.72,-0.48 -1.12,-1.2 -0.4,-0.72 -0.56,-1.68 -0.16,-1.04 -0.24,-2.16 -2,2.48 -5.2,4.16 -3.12,1.68 -8,1.68 -3.12,0 -6.4,-0.88 -3.2,-0.96 -5.84,-3.2 -2.64,-2.32 -4.32,-6.16 -1.68,-3.84 -1.68,-9.68 0,-4.56 1.12,-8.56 1.12,-4 3.36,-6.96 2.32,-3.04 5.76,-4.8 3.44,-1.76 8.08,-1.76 4.08,0 7.28,1.52 3.2,1.44 5.76,4.8 0,-0.96 0.08,-1.92 0.08,-1.04 0.4,-1.84 0.4,-0.88 1.2,-1.36 0.8,-0.56 2.16,-0.56 1.2,0 2.24,0.96 1.04,0.96 1.2,4.16 0.24,4.24 0.32,7.6 0.16,3.36 0.16,6.96 0,4.4 -0.08,8.08 -0.08,3.68 -0.4,7.84 -0.16,1.84 -0.48,2.96 -0.24,1.04 -0.64,1.6 -0.4,0.48 -0.96,0.64 -0.56,0.16 -1.12,0.16 z m -4.32,-20.32 q 0,-4.16 -1.28,-6.8 -1.2,-2.64 -3.12,-4.08 -1.84,-1.52 -4,-2.08 -2.16,-0.56 -4,-0.56 -2.88,0 -4.96,1.04 -2,1.04 -3.28,2.88 -1.28,1.76 -1.92,4.24 -0.56,2.4 -0.56,5.28 0,7.04 3.04,10.4 3.12,3.36 8.4,3.36 3.12,0 5.28,-1.04 2.24,-1.12 3.6,-2.96 1.44,-1.84 2.08,-4.32 0.72,-2.56 0.72,-5.36 z"
       style="font-family:Sniglet;-inkscape-font-specification:'Sniglet, Normal'"
       id="path1876" />
    <path
       d="m 1109.5198,244.76 q -0.48,-1.36 -0.64,-3.04 -0.08,-1.68 -0.08,-4.16 0,-1.76 0,-2.72 0.08,-1.04 0.08,-1.76 0,-0.8 0,-1.52 0.08,-0.8 0.08,-2.16 0,-2.8 -0.16,-5.6 -0.08,-2.88 -0.8,-5.12 -0.72,-2.32 -2.24,-3.76 -1.52,-1.44 -4.4,-1.44 -4.88,0 -7.6,4.64 -2.72,4.64 -3.28,14.8 -0.16,3.2 -0.16,5.84 0,2.64 -0.32,4.56 -0.32,1.84 -1.2,2.88 -0.8,1.04 -2.72,1.04 -1.76,0 -2.56,-0.88 -0.8,-0.96 -1.2,-2.8 -0.32,-1.84 -0.4,-4.48 0,-2.64 -0.24,-6.16 -0.24,-3.84 -0.8,-7.36 -0.48,-3.52 -1.68,-6.16 -1.12,-2.72 -3.12,-4.32 -1.92,-1.6 -4.96,-1.6 -2.88,0 -4.48,1.44 -1.52,1.36 -2.24,3.68 -0.72,2.24 -0.88,5.12 -0.08,2.8 -0.08,5.68 0,1.44 0,2.16 0.08,0.64 0.08,1.2 0,0.56 0,1.44 0.08,0.88 0.08,2.72 0,2.64 -0.16,4.56 -0.08,1.92 -0.56,3.28 -0.56,1.6 -1.52,2 -0.96,0.32 -1.76,0.32 -2.48,0 -3.2,-1.76 -0.72,-1.76 -0.8,-5.12 0,-1.84 -0.08,-4.08 0,-2.32 0,-5.6 0,-1.6 0,-2.8 0,-1.2 0,-2.32 0.08,-1.12 0.08,-2.24 0.08,-1.2 0.16,-2.72 0.24,-4.88 1.76,-7.76 1.52,-2.96 3.6,-4.48 2.08,-1.52 4.48,-1.92 2.4,-0.48 4.4,-0.48 4.32,0 7.28,1.28 2.96,1.28 4.8,3.36 1.92,2.08 2.8,4.72 0.96,2.64 1.28,5.36 0.32,-2.64 1.28,-5.2 1.04,-2.64 2.96,-4.64 2,-2.08 5.12,-3.36 3.12,-1.28 7.68,-1.28 2.16,0 4.4,0.48 2.32,0.4 4.24,1.92 1.92,1.52 3.2,4.4 1.36,2.8 1.6,7.6 0.08,1.52 0.08,2.72 0.08,1.12 0.08,2.24 0.08,1.12 0.08,2.32 0,1.2 0,2.8 0,3.28 -0.08,5.6 0,2.24 0,4.08 0,1.52 -0.16,2.8 -0.08,1.28 -0.48,2.16 -0.4,0.88 -1.2,1.44 -0.72,0.48 -2.16,0.48 -1.36,0 -2.08,-0.48 -0.72,-0.56 -1.2,-1.84 z"
       style="font-family:Sniglet;-inkscape-font-specification:'Sniglet, Normal'"
       id="path1878" />
    <path
       d="m 1144.7197,232.44 q -2.8,0 -5.92,-0.4 -3.04,-0.48 -6.64,-1.92 0.72,4.88 4,7.36 3.36,2.48 9.6,2.48 2.24,0 4,-0.24 1.84,-0.32 3.2,-0.64 1.36,-0.4 2.4,-0.64 1.04,-0.32 1.92,-0.32 1.12,0 2.16,0.72 1.04,0.64 1.04,2.24 0,2 -1.68,3.28 -1.6,1.28 -4,2.08 -2.32,0.72 -4.96,0.96 -2.64,0.32 -4.64,0.32 -4.72,0 -8.72,-1.28 -3.92,-1.28 -6.8,-3.84 -2.88,-2.64 -4.48,-6.48 -1.6,-3.84 -1.6,-8.96 0,-4.96 1.52,-8.8 1.6,-3.84 4.32,-6.48 2.72,-2.64 6.4,-4 3.76,-1.36 8.08,-1.36 3.36,0 6.48,0.88 3.2,0.88 5.6,2.64 2.48,1.76 3.92,4.48 1.52,2.64 1.52,6.24 0,3.2 -1.2,5.44 -1.2,2.24 -3.44,3.6 -2.16,1.36 -5.28,2 -3.04,0.64 -6.8,0.64 z m -0.56,-18.56 q -2.16,0 -4.16,0.56 -2,0.48 -3.68,1.68 -1.6,1.12 -2.72,3.04 -1.12,1.84 -1.52,4.64 3.04,1.36 5.92,1.92 2.88,0.48 6.08,0.48 4.72,0 6.96,-1.12 2.32,-1.2 2.32,-4.24 0,-2.8 -2.16,-4.88 -2.08,-2.08 -7.04,-2.08 z"
       style="font-family:Sniglet;-inkscape-font-specification:'Sniglet, Normal'"
       id="path1880" />
  </g>
  <g
     aria-label="Thinky Awards
2024"
     id="text864-1"
     style="font-size:120px;line-height:1.05;letter-spacing:0px;word-spacing:0px">
    <path
       d="m 422.52014,620.39217 q -3.36,0.24 -7.2,0.36 -3.72,0.12 -8.28,0.24 0.12,3.24 0.24,6.12 0.12,2.76 0.24,5.64 0.12,2.88 0.12,6 0.12,3.12 0.12,6.96 0,5.4 0,10.44 0,4.92 -0.12,9.96 -0.12,4.92 -0.24,9.96 -0.12,5.04 -0.36,10.44 -0.12,2.88 -0.6,4.44 -0.36,1.56 -1.08,2.4 -0.72,0.84 -1.68,0.96 -0.96,0.24 -2.16,0.24 -2.16,0 -3.72,-1.44 -1.44,-1.56 -1.68,-6.48 -0.24,-4.32 -0.36,-9.12 0,-4.8 -0.12,-10.32 -0.12,-5.52 -0.12,-11.88 0,-6.48 0,-14.28 0,-6.6 0,-11.52 0.12,-4.92 0.36,-8.52 h -4.92 q -5.04,0 -8.64,-0.12 -3.48,-0.12 -5.76,-0.6 -2.28,-0.6 -3.36,-1.8 -0.96,-1.2 -0.96,-3.36 0,-1.08 0.24,-1.92 0.24,-0.96 1.08,-1.68 0.84,-0.84 2.28,-1.32 1.56,-0.48 3.96,-0.72 2.28,-0.12 4.08,-0.24 1.8,-0.12 3.6,-0.24 1.8,-0.12 3.72,-0.12 1.92,0 4.44,0 7.08,0 13.32,0.12 6.36,0.12 13.44,0.48 2.88,0.24 4.44,0.72 1.56,0.36 2.4,1.08 0.84,0.72 0.96,1.68 0.24,0.96 0.24,2.16 0,2.16 -1.56,3.6 -1.44,1.44 -6.36,1.68 z"
       style="font-family:Sniglet;-inkscape-font-specification:'Sniglet, Normal';text-align:center;text-anchor:middle"
       id="path1883" />
    <path
       d="m 468.24013,644.03217 q -4.44,0 -8.04,1.32 -3.48,1.32 -7.92,3.6 0,0.12 0,2.28 0,2.16 -0.12,5.52 0,3.36 -0.12,7.56 0,4.08 -0.12,8.28 0,4.08 -0.24,7.8 -0.12,3.72 -0.24,6.24 -0.24,2.52 -0.6,3.96 -0.24,1.44 -0.72,2.16 -0.36,0.6 -1.08,0.72 -0.72,0.12 -1.56,0.12 -2.04,0 -3.24,-0.24 -1.08,-0.12 -1.8,-0.72 -0.72,-0.72 -1.08,-2.04 -0.24,-1.32 -0.48,-3.6 -0.24,-2.28 -0.48,-6.24 -0.12,-4.08 -0.24,-9 -0.12,-5.04 -0.24,-10.68 0,-5.64 0,-11.16 0,-5.52 0,-11.64 0.12,-6.24 0.24,-11.88 0.12,-5.76 0.24,-10.2 0.12,-4.56 0.36,-6.72 0.24,-3.12 1.08,-5.4 0.96,-2.28 4.08,-2.28 2.4,0 3.84,1.68 1.56,1.68 1.8,6.36 0.24,4.2 0.36,11.76 0.24,7.44 0.36,16.8 1.68,-1.32 4.08,-2.4 2.4,-1.2 5.04,-1.92 2.64,-0.84 5.4,-1.32 2.76,-0.48 5.16,-0.48 5.76,0 9.96,2.76 4.32,2.64 6.84,7.68 1.68,3.24 2.52,7.2 0.84,3.84 1.2,8.16 0.12,1.92 0.24,3.84 0.12,1.8 0.12,3.96 0.12,2.04 0.12,4.68 0,2.64 0,6.24 0,3.6 -0.12,6.72 -0.12,3 -0.72,5.28 -0.48,2.16 -1.68,3.48 -1.2,1.2 -3.36,1.2 -3.12,0 -4.68,-1.92 -1.44,-2.04 -1.44,-4.8 0,-0.12 0,-2.52 0,-2.4 -0.12,-5.52 0,-3.24 -0.12,-6.48 0,-3.24 -0.12,-5.28 -0.12,-1.92 -0.36,-4.08 -0.12,-2.28 -0.48,-4.56 -0.24,-2.28 -0.72,-4.32 -0.48,-2.16 -1.2,-3.84 -1.68,-3.96 -4.2,-5.04 -2.52,-1.08 -5.4,-1.08 z"
       style="font-family:Sniglet;-inkscape-font-specification:'Sniglet, Normal';text-align:center;text-anchor:middle"
       id="path1885" />
    <path
       d="m 507.60016,685.91217 q -0.24,-4.44 -0.48,-10.08 -0.12,-5.76 -0.12,-12.6 0,-8.52 0.12,-14.52 0.12,-6.12 0.6,-9.96 0.6,-3.96 1.8,-5.76 1.2,-1.92 3.36,-1.92 2.04,0 3.6,1.44 1.56,1.44 1.8,6.24 0.72,12.6 0.72,24.36 0,6 -0.24,11.28 -0.24,5.16 -0.48,11.4 -0.12,2.88 -0.6,4.44 -0.36,1.56 -1.08,2.4 -0.72,0.84 -1.68,0.96 -0.84,0.24 -2.04,0.24 -2.16,0 -3.6,-1.44 -1.44,-1.56 -1.68,-6.48 z m 5.4,-76.56 q 2.76,0 5.04,2.16 2.4,2.16 2.4,5.16 0,2.88 -2.4,5.04 -2.4,2.04 -5.4,2.04 -2.52,0 -4.8,-2.04 -2.16,-2.16 -2.16,-5.28 0,-2.88 2.16,-4.92 2.28,-2.16 5.16,-2.16 z"
       style="font-family:Sniglet;-inkscape-font-specification:'Sniglet, Normal';text-align:center;text-anchor:middle"
       id="path1887" />
    <path
       d="m 562.08014,642.23217 q -4.44,0 -8.04,1.44 -3.48,1.44 -7.92,4.32 0,2.52 0,7.44 0,4.8 -0.12,10.56 -0.12,5.64 -0.24,11.16 -0.12,5.52 -0.48,9.24 -0.24,2.4 -0.6,3.84 -0.24,1.32 -0.84,2.04 -0.48,0.72 -1.44,0.96 -0.84,0.12 -2.28,0.12 -1.44,0 -2.4,-0.12 -0.84,-0.24 -1.44,-0.84 -0.6,-0.72 -0.96,-2.04 -0.36,-1.32 -0.6,-3.6 -0.24,-2.16 -0.48,-5.76 -0.12,-3.6 -0.24,-7.8 -0.12,-4.32 -0.24,-8.64 0,-4.44 0,-8.16 0,-6.12 0.12,-9.96 0.24,-3.84 0.72,-6.84 0.72,-5.04 1.92,-6.36 1.2,-1.32 3.24,-1.32 3,0 4.44,1.68 1.56,1.68 1.92,5.52 4.44,-3.84 9.48,-6.12 5.16,-2.28 10.56,-2.28 5.16,0 9.36,2.4 4.32,2.4 7.08,7.8 1.68,3.24 2.52,7.2 0.84,3.84 1.2,8.16 0.12,1.92 0.24,3.84 0.12,1.8 0.12,3.96 0.12,2.04 0.12,4.68 0,2.64 0,6.24 0,3.84 -0.12,7.2 -0.12,3.36 -0.72,5.88 -0.48,2.4 -1.8,3.84 -1.32,1.32 -3.6,1.32 -5.52,0 -5.76,-5.28 0,-0.36 0,-3 0,-2.76 -0.12,-6.36 0,-3.6 -0.12,-7.32 0,-3.72 -0.12,-6.12 -0.12,-1.92 -0.36,-4.08 -0.12,-2.28 -0.48,-4.56 -0.24,-2.28 -0.72,-4.32 -0.48,-2.16 -1.2,-3.84 -1.68,-3.96 -4.2,-5.04 -2.52,-1.08 -5.4,-1.08 z"
       style="font-family:Sniglet;-inkscape-font-specification:'Sniglet, Normal';text-align:center;text-anchor:middle"
       id="path1889" />
    <path
       d="m 601.20005,686.99217 q -0.24,-2.64 -0.36,-7.92 -0.12,-5.4 -0.24,-12.36 -0.12,-7.08 -0.12,-15.36 0,-8.28 0,-16.92 0,-10.2 0.12,-16.68 0.12,-6.48 0.72,-10.2 0.6,-3.72 1.92,-5.04 1.32,-1.44 3.84,-1.44 2.16,0 3.12,1.44 0.96,1.32 1.44,6 0.24,2.88 0.36,7.8 0.24,4.8 0.24,10.56 0.12,5.76 0.12,12 0.12,6.24 0.12,11.88 v 9.72 l 26.64,-24.12 q 1.32,-1.2 3.12,-2.28 1.92,-1.2 3.96,-1.2 2.4,0 3.6,1.92 1.2,1.8 1.2,4.2 0,1.32 -0.48,2.52 -0.36,1.08 -1.68,2.04 l -16.2,13.32 19.68,28.56 q 1.08,1.44 1.08,3.24 0,2.64 -1.68,3.96 -1.68,1.32 -4.32,1.32 -1.92,0 -3.36,-0.72 -1.44,-0.72 -2.76,-2.76 l -18,-26.04 -10.92,9 q -0.12,4.44 -0.24,7.92 -0.12,3.48 -0.36,5.52 -0.48,4.2 -1.56,5.52 -1.08,1.32 -3.84,1.32 -2.76,0 -3.84,-1.32 -0.96,-1.32 -1.32,-5.4 z"
       style="font-family:Sniglet;-inkscape-font-specification:'Sniglet, Normal';text-align:center;text-anchor:middle"
       id="path1891" />
    <path
       d="m 678.12002,715.31217 q -1.56,2.76 -3,4.08 -1.32,1.32 -3.12,1.32 -1.68,0 -3.36,-1.08 -1.68,-1.08 -1.68,-3 0,-1.8 1.2,-5.16 1.32,-3.36 3.12,-7.32 1.92,-3.96 3.96,-8.16 2.04,-4.2 3.72,-7.68 l 0.84,-1.8 q -3.6,-7.08 -7.44,-15.12 -3.72,-8.04 -6.84,-15.24 -3.12,-7.2 -5.16,-12.48 -1.92,-5.4 -1.92,-7.08 0,-1.56 1.2,-2.64 1.32,-1.2 3.24,-1.2 1.68,0 3.24,0.72 1.56,0.6 2.88,2.88 1.92,3.6 3.96,8.28 2.16,4.56 4.2,9.6 2.16,5.04 4.32,10.2 2.28,5.16 4.56,9.96 2.64,-4.92 5.64,-10.32 3,-5.4 5.76,-10.44 2.88,-5.04 5.28,-9.24 2.4,-4.32 4.08,-7.2 1.68,-2.76 3.36,-3.96 1.68,-1.2 3.48,-1.2 1.2,0 2.4,1.08 1.2,0.96 1.2,2.64 0,2.52 -2.28,8.16 -2.16,5.52 -5.64,12.84 -3.48,7.32 -7.92,15.72 -4.32,8.28 -8.64,16.32 -4.32,7.92 -8.28,14.88 -3.84,6.96 -6.36,11.64 z"
       style="font-family:Sniglet;-inkscape-font-specification:'Sniglet, Normal';text-align:center;text-anchor:middle"
       id="path1893" />
    <path
       d="m 801.47995,687.23217 q -1.2,-2.88 -2.64,-6.6 -1.32,-3.84 -2.88,-8.04 -3.6,0.12 -7.56,0.24 -3.96,0 -8.04,0 -5.16,0 -9.36,0 -4.2,0 -7.68,-0.12 -1.44,4.2 -2.76,7.92 -1.32,3.72 -2.52,6.6 -2.4,6.12 -6.96,6.12 -1.68,0 -3.24,-1.08 -1.44,-1.08 -1.44,-3.12 0,-2.04 0.72,-5.28 0.72,-3.36 1.8,-7.08 1.2,-3.84 2.52,-7.8 1.32,-4.08 2.52,-7.56 1.2,-3.84 3.36,-9.72 2.28,-6 4.8,-12.48 2.52,-6.48 5.04,-12.72 2.52,-6.36 4.56,-11.04 0.48,-1.2 1.2,-2.64 0.72,-1.56 1.68,-2.88 1.08,-1.32 2.28,-2.28 1.32,-0.96 2.88,-0.96 1.56,0 2.88,1.08 1.32,0.96 2.28,2.4 1.08,1.44 1.8,3 0.84,1.56 1.32,2.76 1.92,4.8 4.32,11.04 2.52,6.24 4.92,12.6 2.52,6.36 4.68,12.12 2.16,5.76 3.48,9.72 1.08,3.48 2.4,7.44 1.44,3.96 2.64,7.8 1.2,3.84 1.92,7.2 0.84,3.24 0.84,5.28 0,2.04 -1.56,3.12 -1.44,1.08 -3.12,1.08 -2.16,0 -3.96,-1.44 -1.8,-1.56 -3.12,-4.68 z m -21.24,-26.4 q 2.88,0 5.76,0.12 2.88,0 5.76,0.12 -1.44,-4.2 -2.88,-8.4 -1.44,-4.2 -2.76,-8.04 -1.2,-3.84 -2.28,-7.08 -0.96,-3.36 -1.68,-5.88 -0.48,-1.56 -1.08,-2.52 -0.6,-0.96 -1.56,-0.96 -0.96,0 -1.56,1.08 -0.6,0.96 -1.08,2.52 -1.44,4.92 -4.08,12.84 -2.52,7.8 -5.4,16.44 3.24,-0.12 6.48,-0.12 3.24,-0.12 6.36,-0.12 z"
       style="font-family:Sniglet;-inkscape-font-specification:'Sniglet, Normal';text-align:center;text-anchor:middle"
       id="path1895" />
    <path
       d="m 848.51986,647.99217 q 0.72,-1.56 2.04,-2.28 1.44,-0.84 3.12,-0.84 1.44,0 2.76,0.72 1.44,0.72 2.28,2.28 3.48,6.48 6.24,13.2 2.88,6.6 6.12,13.44 3,-9.72 5.28,-18.72 2.28,-9.12 4.68,-17.88 0.84,-3.12 2.28,-4.08 1.44,-1.08 3.72,-1.08 2.04,0 3.36,1.2 1.32,1.08 1.32,3 0,1.56 -0.84,5.52 -0.72,3.84 -2.04,9 -1.2,5.04 -2.76,10.8 -1.44,5.76 -3,11.04 -1.44,5.28 -2.76,9.6 -1.32,4.32 -2.04,6.48 -0.96,2.76 -2.28,4.08 -1.32,1.44 -4.08,1.44 -2.52,0 -4.2,-1.92 -1.68,-2.04 -3.12,-4.8 -0.48,-0.96 -1.56,-3.24 -1.08,-2.28 -2.64,-5.4 -1.44,-3.12 -3.24,-6.84 -1.68,-3.72 -3.48,-7.56 -1.8,3.84 -3.72,7.56 -1.8,3.72 -3.36,6.96 -1.56,3.12 -2.76,5.4 -1.08,2.28 -1.56,3.24 -1.44,2.76 -3.12,4.8 -1.56,1.92 -4.2,1.92 -4.2,0 -6.36,-5.52 -0.84,-2.16 -2.16,-6.36 -1.32,-4.32 -2.76,-9.6 -1.44,-5.28 -2.88,-10.92 -1.44,-5.76 -2.64,-10.8 -1.08,-5.04 -1.8,-8.88 -0.72,-3.84 -0.72,-5.52 0,-2.04 1.08,-3.36 1.2,-1.32 3.36,-1.32 2.4,0 3.84,1.08 1.56,0.96 2.4,4.08 2.4,8.76 4.68,17.88 2.28,9 5.28,18.72 2.64,-5.76 5.28,-12 2.64,-6.24 6.96,-14.52 z"
       style="font-family:Sniglet;-inkscape-font-specification:'Sniglet, Normal';text-align:center;text-anchor:middle"
       id="path1897" />
    <path
       d="m 952.91979,693.83217 q -1.92,0 -3.12,-0.6 -1.08,-0.72 -1.68,-1.8 -0.6,-1.08 -0.84,-2.52 -0.24,-1.56 -0.36,-3.24 -3,3.72 -7.8,6.24 -4.68,2.52 -12,2.52 -4.68,0 -9.6,-1.32 -4.8,-1.44 -8.76,-4.8 -3.96,-3.48 -6.48,-9.24 -2.52,-5.76 -2.52,-14.52 0,-6.84 1.68,-12.84 1.68,-6 5.04,-10.44 3.48,-4.56 8.64,-7.2 5.16,-2.64 12.12,-2.64 6.12,0 10.92,2.28 4.8,2.16 8.64,7.2 0,-1.44 0.12,-2.88 0.12,-1.56 0.6,-2.76 0.6,-1.32 1.8,-2.04 1.2,-0.84 3.24,-0.84 1.8,0 3.36,1.44 1.56,1.44 1.8,6.24 0.36,6.36 0.48,11.4 0.24,5.04 0.24,10.44 0,6.6 -0.12,12.12 -0.12,5.52 -0.6,11.76 -0.24,2.76 -0.72,4.44 -0.36,1.56 -0.96,2.4 -0.6,0.72 -1.44,0.96 -0.84,0.24 -1.68,0.24 z m -6.48,-30.48 q 0,-6.24 -1.92,-10.2 -1.8,-3.96 -4.68,-6.12 -2.76,-2.28 -6,-3.12 -3.24,-0.84 -6,-0.84 -4.32,0 -7.44,1.56 -3,1.56 -4.92,4.32 -1.92,2.64 -2.88,6.36 -0.84,3.6 -0.84,7.92 0,10.56 4.56,15.6 4.68,5.04 12.6,5.04 4.68,0 7.92,-1.56 3.36,-1.68 5.4,-4.44 2.16,-2.76 3.12,-6.48 1.08,-3.84 1.08,-8.04 z"
       style="font-family:Sniglet;-inkscape-font-specification:'Sniglet, Normal';text-align:center;text-anchor:middle"
       id="path1899" />
    <path
       d="m 973.0798,686.03217 q -0.48,-4.2 -0.6,-10.2 -0.12,-6 -0.12,-14.52 0,-8.4 0,-13.56 0.12,-5.16 0.72,-9.12 0.6,-4.92 1.8,-6.36 1.32,-1.44 3.36,-1.44 1.44,0 2.52,0.24 1.2,0.24 2.04,1.08 0.96,0.72 1.44,2.16 0.48,1.44 0.48,3.96 0,0.48 0.12,0.96 0,0.48 0,1.08 0.12,0.48 0.12,1.2 3.24,-4.08 7.32,-6.96 4.2,-2.88 9.48,-2.88 7.08,0 7.08,5.88 0,2.16 -0.96,3.6 -0.84,1.44 -2.52,2.4 -1.56,0.84 -3.72,1.32 -2.04,0.48 -4.56,0.96 -3.84,0.72 -7.2,2.76 -3.36,1.92 -4.56,4.92 0,2.28 0,3.36 0.12,1.08 0.12,1.8 0.12,0.72 0.12,1.56 0,0.84 0,2.64 0,6.12 -0.24,11.52 -0.24,5.28 -0.48,11.52 -0.12,2.88 -0.72,4.44 -0.48,1.56 -1.32,2.4 -0.72,0.84 -1.68,0.96 -0.96,0.24 -1.92,0.24 -3.36,0 -4.56,-1.44 -1.08,-1.56 -1.56,-6.48 z"
       style="font-family:Sniglet;-inkscape-font-specification:'Sniglet, Normal';text-align:center;text-anchor:middle"
       id="path1901" />
    <path
       d="m 1065.9599,693.11217 q -2.4,0 -4.08,-1.92 -1.56,-1.92 -2.16,-4.44 -1.44,1.32 -3.36,2.64 -1.8,1.32 -4.2,2.52 -2.4,1.08 -5.28,1.8 -2.88,0.72 -6.24,0.72 -4.08,0 -9.12,-1.32 -4.92,-1.44 -9.36,-4.8 -4.32,-3.48 -7.32,-9.36 -2.88,-5.88 -2.88,-14.76 0,-7.56 2.28,-13.44 2.28,-5.88 6.36,-9.84 4.2,-4.08 9.84,-6.12 5.76,-2.16 12.48,-2.16 5.76,0 9.12,1.32 3.36,1.32 5.28,3.12 0,-3.24 0,-7.32 0,-4.2 0,-8.04 0.12,-3.96 0.12,-7.2 0.12,-3.24 0.24,-4.92 0.24,-4.08 1.44,-5.52 1.2,-1.56 4.2,-1.56 3.12,0 4.2,1.56 1.2,1.44 1.44,5.16 0.12,1.56 0.12,4.2 0.12,2.64 0.12,5.76 0,3.12 0,6.36 0.12,3.12 0.12,5.76 0,2.52 0,4.2 0,1.68 0,1.68 0,12.24 -0.24,22.56 -0.12,10.32 -0.12,16.44 0.24,1.32 0.96,2.52 0.84,1.2 1.68,2.4 0.96,1.2 1.68,2.52 0.72,1.32 0.72,2.76 0,1.68 -0.84,3 -0.84,1.2 -2.16,2.04 -1.2,0.84 -2.64,1.32 -1.32,0.36 -2.4,0.36 z m -23.16,-10.56 q 7.44,0 11.4,-4.44 3.96,-4.44 3.96,-14.64 0,-19.56 -15.48,-19.56 -3.6,0 -6.96,1.08 -3.36,1.08 -6,3.36 -2.52,2.28 -4.2,5.76 -1.56,3.48 -1.56,8.28 0,3.96 1.08,7.56 1.2,3.6 3.48,6.48 2.4,2.76 5.88,4.44 3.6,1.68 8.4,1.68 z"
       style="font-family:Sniglet;-inkscape-font-specification:'Sniglet, Normal';text-align:center;text-anchor:middle"
       id="path1903" />
    <path
       d="m 1104.7199,630.71217 q 2.52,0 6.36,0.48 3.84,0.36 7.32,1.56 3.48,1.08 6,3.12 2.52,2.04 2.52,5.16 0,1.8 -1.08,3.12 -0.96,1.32 -3.12,1.32 -1.56,0 -3.6,-0.48 -1.92,-0.48 -4.32,-1.08 -2.28,-0.72 -5.04,-1.2 -2.64,-0.48 -5.64,-0.48 -5.04,0 -8.28,1.56 -3.12,1.56 -3.12,4.92 0,1.92 1.08,3.24 1.2,1.32 3.12,2.4 2.04,0.96 4.68,1.68 2.76,0.72 5.76,1.44 3.72,0.96 7.32,2.16 3.72,1.2 6.6,3.36 2.88,2.04 4.68,5.28 1.8,3.12 1.8,7.8 0,8.88 -6.72,14.16 -6.72,5.16 -19.8,5.16 -2.88,0 -6.84,-0.48 -3.96,-0.36 -7.44,-1.56 -3.48,-1.08 -6,-3.12 -2.4,-2.16 -2.4,-5.64 0,-2.4 1.08,-3.6 1.2,-1.32 2.88,-1.32 1.32,0 2.76,0.84 1.44,0.84 3.48,1.8 2.04,0.96 4.92,1.8 2.88,0.84 7.08,0.84 1.56,0 4.08,-0.12 2.52,-0.24 4.92,-1.08 2.52,-0.84 4.2,-2.28 1.8,-1.56 1.8,-4.32 0,-2.16 -1.2,-3.6 -1.2,-1.56 -3.24,-2.64 -2.04,-1.08 -4.8,-1.8 -2.64,-0.84 -5.64,-1.68 -3.48,-0.96 -7.08,-2.16 -3.48,-1.2 -6.36,-3.12 -2.88,-1.92 -4.68,-4.8 -1.8,-3 -1.8,-7.32 0,-4.08 1.68,-7.56 1.68,-3.6 4.8,-6.24 3.12,-2.64 7.44,-4.08 4.44,-1.44 9.84,-1.44 z"
       style="font-family:Sniglet;-inkscape-font-specification:'Sniglet, Normal';text-align:center;text-anchor:middle"
       id="path1905" />
    <path
       d="m 644.93993,749.20723 q -4.32,0 -7.2,0.96 -2.88,0.84 -4.8,2.28 -1.92,1.44 -3.12,3 -1.08,1.56 -2.16,3 -0.96,1.44 -2.16,2.4 -1.08,0.84 -2.76,0.84 -2.88,0 -4.08,-1.44 -1.08,-1.56 -1.08,-4.08 0,-5.28 3.96,-9.84 1.2,-1.44 3.24,-3 2.16,-1.68 5.04,-3 3,-1.32 6.84,-2.16 3.96,-0.96 8.88,-0.96 13.08,0 20.28,6.36 7.2,6.36 7.2,17.88 0,2.28 -0.48,5.04 -0.36,2.76 -1.56,5.76 -1.08,3 -3.12,6.24 -2.04,3.24 -5.4,6.6 -3,3 -6.36,5.52 -3.36,2.52 -6.96,5.04 -3.6,2.52 -7.56,5.4 -3.84,2.76 -7.8,6.36 3.84,2.04 8.28,2.64 4.44,0.6 9.96,0.6 5.16,0 8.28,-0.24 3.12,-0.24 5.04,-0.6 1.92,-0.36 3,-0.6 1.08,-0.24 2.28,-0.24 4.44,0 4.44,4.08 0,3.6 -3,5.52 -3,1.92 -7.2,2.88 -4.2,0.84 -8.64,0.96 -4.44,0.24 -7.32,0.24 -1.56,0 -4.44,-0.24 -2.76,-0.12 -6,-0.6 -3.24,-0.48 -6.6,-1.32 -3.24,-0.96 -6,-2.4 -2.64,-1.56 -4.32,-3.72 -1.68,-2.28 -1.68,-5.4 0,-4.2 3,-7.92 3.12,-3.84 7.68,-7.44 4.56,-3.72 9.84,-7.32 5.28,-3.72 9.84,-7.56 4.56,-3.96 7.56,-8.16 3.12,-4.2 3.12,-9.12 0,-6.12 -4.2,-9.12 -4.08,-3.12 -11.76,-3.12 z"
       style="font-family:Sniglet;-inkscape-font-specification:'Sniglet, Normal';text-align:center;text-anchor:middle"
       id="path1907" />
    <path
       d="m 685.85996,780.64723 q 0,-7.32 1.32,-15 1.44,-7.68 5.04,-13.92 3.6,-6.24 9.72,-10.2 6.24,-3.96 15.84,-3.96 7.56,0 12.84,2.28 5.4,2.28 8.88,6 3.48,3.72 5.4,8.52 1.92,4.68 2.88,9.84 0.96,5.16 1.08,10.2 0.24,5.04 0.24,9.24 0,8.4 -2.04,15.48 -1.92,6.96 -6,12 -3.96,5.04 -10.08,7.92 -6,2.76 -14.16,2.76 -8.52,0 -14.52,-3.24 -5.88,-3.36 -9.6,-8.88 -3.6,-5.64 -5.28,-13.08 -1.56,-7.56 -1.56,-15.96 z m 12,-0.24 q 0,5.88 0.96,11.28 1.08,5.28 3.36,9.36 2.28,3.96 5.88,6.36 3.72,2.4 9,2.4 5.04,0 8.76,-2.04 3.84,-2.04 6.36,-5.64 2.52,-3.72 3.72,-8.76 1.2,-5.04 1.2,-10.92 0,-4.44 -0.36,-10.08 -0.36,-5.76 -2.28,-10.8 -1.8,-5.04 -5.76,-8.52 -3.96,-3.48 -11.04,-3.48 -6,0 -9.84,2.88 -3.72,2.88 -6,7.44 -2.28,4.44 -3.12,9.96 -0.84,5.4 -0.84,10.56 z"
       style="font-family:Sniglet;-inkscape-font-specification:'Sniglet, Normal';text-align:center;text-anchor:middle"
       id="path1909" />
    <path
       d="m 786.06,749.20723 q -4.32,0 -7.2,0.96 -2.88,0.84 -4.8,2.28 -1.92,1.44 -3.12,3 -1.08,1.56 -2.16,3 -0.96,1.44 -2.16,2.4 -1.08,0.84 -2.76,0.84 -2.88,0 -4.08,-1.44 -1.08,-1.56 -1.08,-4.08 0,-5.28 3.96,-9.84 1.2,-1.44 3.24,-3 2.16,-1.68 5.04,-3 3,-1.32 6.84,-2.16 3.96,-0.96 8.88,-0.96 13.08,0 20.28,6.36 7.2,6.36 7.2,17.88 0,2.28 -0.48,5.04 -0.36,2.76 -1.56,5.76 -1.08,3 -3.12,6.24 -2.04,3.24 -5.4,6.6 -3,3 -6.36,5.52 -3.36,2.52 -6.96,5.04 -3.6,2.52 -7.56,5.4 -3.84,2.76 -7.8,6.36 3.84,2.04 8.28,2.64 4.44,0.6 9.96,0.6 5.16,0 8.28,-0.24 3.12,-0.24 5.04,-0.6 1.92,-0.36 3,-0.6 1.08,-0.24 2.28,-0.24 4.44,0 4.44,4.08 0,3.6 -3,5.52 -3,1.92 -7.2,2.88 -4.2,0.84 -8.64,0.96 -4.44,0.24 -7.32,0.24 -1.56,0 -4.44,-0.24 -2.76,-0.12 -6,-0.6 -3.24,-0.48 -6.6,-1.32 -3.24,-0.96 -6,-2.4 -2.64,-1.56 -4.32,-3.72 -1.68,-2.28 -1.68,-5.4 0,-4.2 3,-7.92 3.12,-3.84 7.68,-7.44 4.56,-3.72 9.84,-7.32 5.28,-3.72 9.84,-7.56 4.56,-3.96 7.56,-8.16 3.12,-4.2 3.12,-9.12 0,-6.12 -4.2,-9.12 -4.08,-3.12 -11.76,-3.12 z"
       style="font-family:Sniglet;-inkscape-font-specification:'Sniglet, Normal';text-align:center;text-anchor:middle"
       id="path1911" />
    <path
       d="m 873.18003,796.84723 q -0.12,4.56 -0.12,9.96 0,5.4 -0.36,10.08 -0.24,3.6 -1.68,4.68 -1.32,0.96 -3.72,0.96 -2.16,0 -3.36,-0.84 -1.08,-0.72 -1.68,-3.24 -0.48,-2.64 -0.6,-7.56 -0.12,-5.04 -0.12,-13.44 -3.96,0 -7.56,0.12 -3.6,0.12 -6.96,0.12 -5.04,0 -9.24,-0.24 -4.08,-0.24 -7.08,-0.84 -2.88,-0.72 -4.56,-1.92 -1.56,-1.2 -1.56,-3.12 0,-2.64 2.16,-6.6 2.16,-4.08 5.4,-8.76 3.24,-4.68 6.84,-9.48 3.72,-4.92 6.84,-9.12 1.44,-1.92 4.08,-5.28 2.76,-3.48 5.88,-6.84 3.12,-3.48 6.24,-6 3.12,-2.52 5.28,-2.52 2.04,0 3.6,1.32 1.56,1.32 1.8,6.12 0.48,6.96 0.6,14.64 0.12,7.56 0.12,15 v 11.88 q 3.36,0.24 5.4,0.6 2.04,0.36 3.12,1.08 1.08,0.6 1.44,1.56 0.36,0.96 0.36,2.4 0,3 -2.76,4.08 -2.76,0.96 -7.8,1.2 z m -11.76,-39.24 q -5.28,6.36 -9,10.92 -3.6,4.44 -6.24,7.68 -2.52,3.24 -4.44,5.52 -1.8,2.28 -3.24,4.08 5.52,-0.24 11.28,-0.24 5.88,-0.12 11.64,-0.12 z"
       style="font-family:Sniglet;-inkscape-font-specification:'Sniglet, Normal';text-align:center;text-anchor:middle"
       id="path1913" />
  </g>
  <flowRoot
     xml:space="preserve"
     id="flowRoot5251"
     style="font-style:normal;font-weight:normal;font-size:40px;line-height:1.25;font-family:sans-serif;letter-spacing:0px;word-spacing:0px;fill:#000000;fill-opacity:1;stroke:none"><flowRegion
       id="flowRegion5253"><rect
         id="rect5255"
         width="1821.6674"
         height="1040.684"
         x="-71.511734"
         y="-71.495918" /></flowRegion><flowPara
       id="flowPara5257" /></flowRoot>
</svg>
