<?xml version="1.0" encoding="UTF-8" standalone="no"?>
<svg
   id="Layer_1"
   data-name="Layer 1"
   width="130"
   height="38"
   viewBox="0 0 130 38"
   version="1.1"
   sodipodi:docname="nintendo-switch.svg"
   inkscape:version="1.1 (c68e22c387, 2021-05-23)"
   xmlns:inkscape="http://www.inkscape.org/namespaces/inkscape"
   xmlns:sodipodi="http://sodipodi.sourceforge.net/DTD/sodipodi-0.dtd"
   xmlns="http://www.w3.org/2000/svg"
   xmlns:svg="http://www.w3.org/2000/svg">
  <sodipodi:namedview
     id="namedview11"
     pagecolor="#505050"
     bordercolor="#ffffff"
     borderopacity="1"
     inkscape:pageshadow="0"
     inkscape:pageopacity="0"
     inkscape:pagecheckerboard="1"
     showgrid="false"
     inkscape:zoom="9.6307692"
     inkscape:cx="54.097444"
     inkscape:cy="-0.67492013"
     inkscape:window-width="2560"
     inkscape:window-height="1361"
     inkscape:window-x="-9"
     inkscape:window-y="-9"
     inkscape:window-maximized="1"
     inkscape:current-layer="Layer_1" />
  <defs
     id="defs4">
    <style
       id="style2">.cls-1{fill:#fff;}</style>
  </defs>
  <path
     class="cls-1"
     d="M586.18,507.12a2.28,2.28,0,1,0,2.28-2.28A2.28,2.28,0,0,0,586.18,507.12Zm14.24-7.27h-3.75a.16.16,0,0,0-.15.16V523.9a.18.18,0,0,0,.17.18h3.73a6.21,6.21,0,0,0,6.21-6.21v-11.8A6.22,6.22,0,0,0,600.42,499.85Zm.89,15.78a2.45,2.45,0,1,1,2.45-2.45A2.45,2.45,0,0,1,601.31,515.63Zm-7.4-15.78h-5.29a6.22,6.22,0,0,0-6.21,6.22v11.8a6.21,6.21,0,0,0,6.21,6.21h5.29a.18.18,0,0,0,.18-.18V500A.18.18,0,0,0,593.91,499.85Zm-1.77,22.28h-3.52a4.27,4.27,0,0,1-4.26-4.26v-11.8a4.25,4.25,0,0,1,4.26-4.26h3.52Zm39.92-19.5,3.37,4.55h1.35v-6.8H635.4v4.46l-3.35-4.46h-1.37v6.8h1.38Zm-13.92,13.06c-1.85-.3-3-.65-3-1.51s1.33-1.38,3.12-1.38a11.08,11.08,0,0,1,3.93.88l.91-2.22a14.57,14.57,0,0,0-5-1c-2.77,0-5.72,1.36-5.72,3.86,0,2,1.43,3.07,5.11,3.7,2.59.45,4,.69,4,1.81,0,.61-.49,1.64-3.42,1.64a9.17,9.17,0,0,1-4.58-1.19l-1.21,2.19a12.5,12.5,0,0,0,5.61,1.36c4.08,0,6.24-1.42,6.24-4.09C624.09,518.2,623.56,516.58,618.14,515.69Zm-3.95-13.06,3.38,4.55h1.34v-6.8h-1.38v4.46l-3.34-4.46h-1.38v6.8h1.38ZM638.51,520l-2.72-9.31h-2.28l-2.7,9.28-2.47-9.28h-2.79l3.63,12.83h3.08l2.39-8.45,2.38,8.45h3.09l3.65-12.83H641Zm-13-19.58H624v6.8h1.51ZM647,523.48h2.86V510.65H647Zm42.49-23.33a3.63,3.63,0,1,0,3.63,3.63A3.63,3.63,0,0,0,689.45,500.15Zm0,5.74a2.12,2.12,0,1,1,2.12-2.11A2.11,2.11,0,0,1,689.45,505.89Zm.47,9.82h-6v-5.06h-2.66v12.83h2.66v-5.11h6v5.11h2.65V510.65h-2.65Zm7,6-.45,1.28-.44-1.28h-.49v1.75h.32v-1.35l.46,1.34h.31l.46-1.34v1.35h.31v-1.75Zm-19-21.35h-2.81v6.8h2.81a3.4,3.4,0,1,0,0-6.8Zm.07,5.37h-1.49v-3.94H678a2,2,0,1,1,0,3.94Zm15.69,16.31h.54v1.42h.34v-1.42h.53v-.33H693.7Zm-21-9a4.1,4.1,0,0,1,3.52,2l2.09-1.82a6.85,6.85,0,1,0,0,7.64l-2.09-1.82a4.11,4.11,0,0,1-3.52,2,4,4,0,1,1,0-8Zm-15.09-7.17h-3.9v-1.6h3.61v-1.23h-3.61v-1.46h3.9v-1.25h-5.28v6.8h5.28ZM653,513.38h4.1v10.1h2.76v-10.1h4v-2.73H653Zm-5.57-13h-5.76v1.44h2.17v5.36h1.47v-5.36h2.12Zm22,6.8v-6.8H668v4.46l-3.35-4.46h-1.37v6.8h1.38v-4.55l3.37,4.55Z"
     transform="translate(-575 -493)"
     id="path8" />
</svg>
